<svg width="233" height="373" viewBox="0 0 233 373" fill="none" xmlns="http://www.w3.org/2000/svg">
<path fill-rule="evenodd" clip-rule="evenodd" d="M213.163 1.08424C179.634 5.01424 139.845 14.7512 110.963 26.0942C58.4749 46.7072 22.7808 78.9892 8.01585 119.198C-2.73015 148.465 -2.66815 185.831 8.18085 217.726C9.82085 222.549 11.1628 226.61 11.1628 226.752C11.1628 226.894 11.5508 227.01 12.0258 227.01C12.4998 227.01 14.3048 223.973 16.0368 220.26C29.4018 191.61 44.8238 168.592 66.7528 144.565C87.8658 121.433 107.052 105.068 134.67 86.6372L144.663 79.9682L129.969 94.2392C60.0138 162.179 18.2438 238.066 24.1368 286.51C28.2138 320.026 44.8369 344.969 74.3269 361.822C77.4419 363.602 84.6419 366.71 90.3269 368.728L100.663 372.397L118.163 372.376C137.118 372.354 137.927 372.195 155.163 365.11C175.409 356.787 194.223 338.169 204.271 316.51C207.997 308.479 211.905 292.456 212.685 282.01C213.927 265.379 209.374 246.789 199.925 229.906C195.689 222.338 189.255 216.01 185.795 216.01C180.793 216.01 174.235 224.394 175.866 228.704C176.242 229.697 178.414 233.435 180.692 237.01C189.453 250.758 193.527 267.512 192.123 284.01C191.184 295.051 188.984 302.446 183.348 313.51C179.68 320.711 177.046 324.209 170.172 331.01C160.374 340.703 152.154 345.91 140.663 349.7C133.727 351.988 130.933 352.346 119.663 352.393C104.865 352.455 98.1039 351.054 86.2979 345.478C67.6209 336.657 53.2209 319.436 46.6039 298.01C44.1119 289.943 43.5708 271.48 45.5268 261.302C48.0328 248.266 54.7799 235.21 64.7259 224.15C85.7759 200.742 122.847 194.174 151.867 208.71C160.062 212.815 158.332 213.316 169.407 203.629C196.431 179.989 213.663 146.517 224.81 96.0102C227.272 84.8562 227.918 80.1572 230.032 58.0102C232.882 28.1492 232.548 1.73524 229.302 0.173238C228.401 -0.260762 221.138 0.149239 213.163 1.08424ZM111.929 220.926L108.663 223.843L108.396 251.176C108.192 272.039 108.436 279.102 109.425 281.01C110.138 282.385 114.758 286.514 119.692 290.186C124.626 293.858 129.833 297.774 131.263 298.889C138.737 304.711 147.717 310.01 150.108 310.01C155.889 310.01 160.145 301.581 157.17 296.024C156.624 295.004 149.402 289.373 141.12 283.512L126.062 272.856L126.168 261.183C126.226 254.763 126.249 243.738 126.218 236.683C126.163 223.87 126.16 223.853 123.24 220.933C119.508 217.201 116.103 217.199 111.929 220.926Z" fill="#408080"/>
<path fill-rule="evenodd" clip-rule="evenodd" d="M213.163 1.08424C179.634 5.01424 139.845 14.7512 110.963 26.0942C58.4749 46.7072 22.7808 78.9892 8.01585 119.198C-2.73015 148.465 -2.66815 185.831 8.18085 217.726C9.82085 222.549 11.1628 226.61 11.1628 226.752C11.1628 226.894 11.5508 227.01 12.0258 227.01C12.4998 227.01 14.3048 223.973 16.0368 220.26C29.4018 191.61 44.8238 168.592 66.7528 144.565C87.8658 121.433 107.052 105.068 134.67 86.6372L144.663 79.9682L129.969 94.2392C60.0138 162.179 18.2438 238.066 24.1368 286.51C28.2138 320.026 44.8369 344.969 74.3269 361.822C77.4419 363.602 84.6419 366.71 90.3269 368.728L100.663 372.397L118.163 372.376C137.118 372.354 137.927 372.195 155.163 365.11C175.409 356.787 194.223 338.169 204.271 316.51C211.286 301.391 214.25 279.912 211.683 262.81C208.522 241.752 194.282 216.01 185.795 216.01C180.793 216.01 174.235 224.394 175.866 228.704C176.242 229.697 178.414 233.435 180.692 237.01C189.453 250.758 193.527 267.512 192.123 284.01C191.184 295.051 188.984 302.446 183.348 313.51C179.68 320.711 177.046 324.209 170.172 331.01C160.374 340.703 152.154 345.91 140.663 349.7C133.727 351.988 130.933 352.346 119.663 352.393C104.865 352.455 98.1039 351.054 86.2979 345.478C67.6139 336.654 53.1408 319.338 46.6208 298.01C44.2618 290.295 43.5799 273.724 45.1869 263.175C47.2109 249.893 54.2869 235.758 64.7259 224.15C85.7759 200.742 122.847 194.174 151.867 208.71C160.062 212.815 158.332 213.316 169.407 203.629C196.431 179.989 213.663 146.517 224.81 96.0102C227.272 84.8562 227.918 80.1572 230.032 58.0102C232.882 28.1492 232.548 1.73524 229.302 0.173238C228.401 -0.260762 221.138 0.149239 213.163 1.08424ZM111.929 220.927L108.663 223.844L108.429 251.177C108.254 271.605 108.514 279.142 109.458 281.01C110.153 282.385 114.758 286.514 119.692 290.186C124.626 293.858 129.833 297.774 131.263 298.889C138.737 304.711 147.717 310.01 150.108 310.01C155.889 310.01 160.145 301.581 157.17 296.024C156.624 295.004 149.402 289.373 141.12 283.512L126.062 272.856L126.168 261.183C126.226 254.763 126.249 243.738 126.218 236.683C126.163 223.87 126.16 223.853 123.24 220.933C119.507 217.201 116.103 217.199 111.929 220.927Z" fill="#00FF00"/>
<path fill-rule="evenodd" clip-rule="evenodd" d="M217.163 0.622237C215.788 0.833237 210.613 1.50224 205.663 2.11124C193.919 3.55424 166.816 9.01724 151.663 12.9952C85.4009 30.3912 42.4939 57.8592 17.8569 98.6552C10.5439 110.764 6.26586 122.062 2.57586 139.01C-0.675135 153.946 -0.782133 176.328 2.31487 194.01C4.31687 205.444 10.6239 227.01 11.9649 227.01C12.3519 227.01 15.1419 221.764 18.1649 215.353C24.6979 201.502 31.9429 189.037 39.8739 178.005C43.0579 173.576 46.7019 168.502 47.9719 166.731C58.6709 151.81 88.0269 121.593 104.163 108.893C116.561 99.1352 126.781 91.6552 136.663 85.1082L144.663 79.8072L127.643 96.6582C118.282 105.927 106.088 118.685 100.546 125.01C61.2319 169.876 33.6309 218.315 25.6149 256.51C23.3939 267.095 23.3999 285.002 25.6289 295.882C28.9929 312.301 35.1059 325.273 45.2659 337.555C72.0549 369.941 113.604 381.366 150.983 366.625C164.335 361.359 174.345 354.923 183.74 345.561C206.803 322.582 216.599 291.462 210.987 259.01C208.703 245.807 200.615 228.576 192.968 220.624C188.711 216.199 187.958 215.798 184.966 216.372C183.149 216.72 180.425 218.363 178.913 220.023C175.01 224.307 175.204 228.925 179.537 234.876C194.244 255.072 196.643 285.739 185.415 310.01C178.87 324.16 165.185 338.387 151.663 345.101C141.42 350.187 134.953 351.899 123.163 352.649C74.2439 355.761 36.2009 311.74 45.1449 262.37C47.8139 247.638 57.1009 231.028 68.8829 219.913C90.2529 199.754 123.866 195.126 151.603 208.525C159.747 212.459 159.5 212.528 169.42 203.595C194.802 180.739 210.902 151.553 221.592 109.015C223.556 101.201 225.163 94.0042 225.163 93.0232C225.163 92.0422 225.804 89.0502 226.587 86.3752C229.516 76.3652 232.764 24.9102 231.438 9.51024L230.663 0.510236L225.163 0.375236C222.138 0.301236 218.538 0.412237 217.163 0.622237ZM112.207 220.812C108.538 224.481 108.2 227.76 108.457 257.155C108.646 278.887 108.818 280.972 110.579 282.918C111.634 284.082 117.869 288.967 124.436 293.773C148.734 311.554 149.676 311.973 155.086 307.421C158.352 304.674 159.23 299.871 157.17 296.024C156.624 295.004 149.424 289.389 141.17 283.548L126.163 272.927V248.392V223.856L123.24 220.933C119.49 217.183 115.876 217.144 112.207 220.812Z" fill="#5D9F5F"/>
<path fill-rule="evenodd" clip-rule="evenodd" d="M231.321 16.0102C231.321 17.3852 231.548 17.9482 231.825 17.2602C232.103 16.5732 232.103 15.4482 231.825 14.7602C231.548 14.0732 231.321 14.6352 231.321 16.0102ZM142.896 16.1342C143.575 16.8182 144.382 17.1252 144.689 16.8172C144.997 16.5092 144.442 15.9502 143.456 15.5742C142.031 15.0322 141.916 15.1462 142.896 16.1342ZM138.163 17.1172C138.163 17.7262 137.488 17.9652 136.663 17.6482C135.838 17.3322 135.163 17.5572 135.163 18.1482C135.163 18.7402 134.488 18.9652 133.663 18.6482C132.838 18.3322 132.163 18.5572 132.163 19.1482C132.163 19.7402 131.488 19.9652 130.663 19.6482C129.838 19.3322 129.163 19.5612 129.163 20.1582C129.163 20.7752 128.238 21.0012 127.019 20.6832C125.539 20.2962 125.196 20.4432 125.911 21.1582C127.128 22.3752 141.375 18.1622 140.552 16.8302C139.811 15.6312 138.163 15.8292 138.163 17.1172ZM111.146 26.8742C110.085 28.0092 110.273 28.1142 112.267 27.5032C116.527 26.1972 117.818 25.1812 115.002 25.3532C113.582 25.4392 111.847 26.1242 111.146 26.8742ZM105.905 29.0952C104.938 29.6582 103.701 29.8422 103.155 29.5052C102.609 29.1682 102.163 29.3952 102.163 30.0102C102.163 30.6252 101.713 30.8502 101.163 30.5102C100.613 30.1702 100.163 30.4442 100.163 31.1182C100.163 31.7922 99.8838 32.0652 99.5438 31.7242C99.2028 31.3842 98.2448 31.7852 97.4148 32.6152C96.5848 33.4462 95.2648 33.8792 94.4818 33.5792C93.6988 33.2792 93.3048 33.4312 93.6048 33.9172C94.2638 34.9832 91.3568 36.2482 90.0728 35.4542C89.5718 35.1452 89.1628 35.3952 89.1628 36.0102C89.1628 36.6252 88.7128 36.8502 88.1628 36.5102C87.6128 36.1702 87.1628 36.2852 87.1628 36.7642C87.1628 37.2442 85.5878 38.2552 83.6628 39.0102C81.7378 39.7652 80.1628 40.7762 80.1628 41.2562C80.1628 41.7352 79.7128 41.8502 79.1628 41.5102C78.6128 41.1702 78.1628 41.3952 78.1628 42.0102C78.1628 42.6252 77.7598 42.8792 77.2678 42.5752C76.7748 42.2702 76.1128 42.6982 75.7958 43.5252C75.4778 44.3522 74.8208 44.9122 74.3338 44.7692C73.8478 44.6272 71.2478 46.0832 68.5558 48.0062C65.8648 49.9302 63.2128 51.3552 62.6628 51.1732C62.1128 50.9922 61.9978 51.1782 62.4078 51.5882C63.2188 52.4002 56.1818 57.6332 54.8388 57.2162C54.3848 57.0762 54.2678 57.3712 54.5778 57.8732C54.8888 58.3752 60.1178 55.4612 66.1998 51.3982C72.2808 47.3352 77.8548 44.0102 78.5868 44.0102C79.3188 44.0102 80.4608 43.3552 81.1248 42.5552C82.3358 41.0972 96.1658 34.1652 103.663 31.2602C105.863 30.4072 108.091 29.3272 108.613 28.8602C109.951 27.6632 108.085 27.8252 105.905 29.0952ZM52.3628 60.2102C51.7028 60.8702 51.1628 61.0362 51.1628 60.5802C51.1628 60.1232 49.5378 61.6042 47.5508 63.8702C45.5648 66.1362 43.5708 67.7622 43.1198 67.4842C42.6698 67.2052 42.0428 67.3952 41.7268 67.9062C41.4118 68.4172 41.7668 68.7442 42.5158 68.6342C43.8678 68.4362 55.1688 59.0812 54.1128 59.0342C53.8108 59.0212 53.0228 59.5502 52.3628 60.2102ZM38.2848 71.3632C37.6768 72.0952 37.4198 72.9342 37.7138 73.2282C38.0068 73.5212 36.8438 74.9422 35.1288 76.3862C33.4128 77.8292 32.4028 79.0102 32.8828 79.0102C34.4458 79.0102 41.3728 71.2582 40.3668 70.6362C39.8288 70.3042 38.8928 70.6312 38.2848 71.3632ZM148.163 75.0992C146.009 76.8612 145.967 76.9962 147.857 76.0722C149.064 75.4822 150.328 74.5522 150.666 74.0052C151.569 72.5442 150.963 72.8092 148.163 75.0992ZM226.242 74.5932C226.29 75.7582 226.527 75.9952 226.846 75.1982C227.135 74.4762 227.099 73.6132 226.767 73.2812C226.435 72.9492 226.199 73.5392 226.242 74.5932ZM151.035 76.7602C149.792 78.3462 149.827 78.3812 151.413 77.1382C152.376 76.3832 153.163 75.5952 153.163 75.3882C153.163 74.5652 152.342 75.0942 151.035 76.7602ZM146.746 79.7602C146.334 80.1722 145.471 80.5102 144.83 80.5102C144.188 80.5102 143.66 80.9602 143.656 81.5102C143.652 82.0602 140.025 86.1102 135.597 90.5102C126.818 99.2342 129.333 97.2512 141.163 86.1222C145.288 82.2412 148.401 79.0532 148.08 79.0382C147.759 79.0232 147.159 79.3482 146.746 79.7602ZM138.604 81.5652C136.717 83.0772 136.722 83.0922 138.782 82.1002C139.947 81.5392 141.256 81.4022 141.692 81.7952C142.127 82.1882 142.16 81.9482 141.764 81.2602C140.867 79.7012 140.94 79.6942 138.604 81.5652ZM29.8798 83.0042C29.1118 84.1002 28.1858 84.7752 27.8228 84.5042C27.4598 84.2322 27.3838 84.3062 27.6538 84.6682C27.9248 85.0302 27.5868 86.0162 26.9038 86.8602C25.9898 87.9902 25.9798 88.2042 26.8658 87.6722C28.2498 86.8422 32.5578 81.0102 31.7878 81.0102C31.5068 81.0102 30.6478 81.9072 29.8798 83.0042ZM129.163 87.7142C119.733 95.1542 118.705 96.0772 120.163 95.7982C120.988 95.6392 122.256 94.7152 122.981 93.7432C123.707 92.7722 124.789 92.2792 125.386 92.6482C125.983 93.0172 126.202 92.8822 125.872 92.3482C125.248 91.3382 131.041 87.3602 132.487 87.8052C132.941 87.9452 133.027 87.5982 132.678 87.0352C132.11 86.1152 133.402 85.5742 135.413 85.8922C135.825 85.9572 136.163 85.5602 136.163 85.0102C136.163 83.1792 133.711 84.1272 129.163 87.7142ZM23.7218 90.5422C22.6538 91.3492 22.2038 92.0242 22.7218 92.0422C23.2388 92.0592 22.8458 92.6932 21.8458 93.4512C20.8468 94.2082 20.0598 95.0942 20.0958 95.4192C20.3288 97.4812 20.0228 98.0422 19.0078 97.4152C18.2928 96.9722 18.1248 97.1402 18.5678 97.8552C18.9598 98.4902 18.7778 99.0102 18.1628 99.0102C17.5478 99.0102 17.2548 99.3492 17.5108 99.7642C18.1898 100.862 12.5818 111.095 11.7548 110.268C11.3708 109.885 11.3318 110.287 11.6678 111.162C12.0028 112.036 11.6528 113.377 10.8898 114.14C10.1268 114.903 9.70879 116.149 9.96179 116.908C10.2388 117.737 9.97579 118.012 9.30379 117.597C8.59179 117.157 8.40179 117.47 8.78079 118.458C9.10879 119.312 8.89279 120.01 8.30079 120.01C7.70979 120.01 7.48479 120.685 7.80079 121.51C8.11779 122.335 7.89279 123.01 7.30079 123.01C6.70979 123.01 6.46679 123.639 6.76279 124.409C7.05779 125.178 6.81079 126.109 6.21479 126.478C5.61779 126.847 5.38879 127.567 5.70579 128.079C6.02179 128.591 5.75179 129.01 5.10479 129.01C4.39079 129.01 4.11679 129.99 4.40779 131.51C4.67079 132.885 4.61079 134.013 4.27379 134.016C3.93779 134.019 3.58879 135.918 3.49879 138.237C3.40879 140.555 2.92979 142.588 2.43379 142.753C1.93779 142.918 1.65779 145.631 1.81079 148.782C2.01579 153.003 1.86079 153.852 1.22279 152.01C0.680789 150.447 0.482787 154.571 0.692787 163.01C0.877787 170.435 1.26979 177.185 1.56379 178.01C1.85779 178.835 2.26979 181.31 2.47979 183.51C2.68979 185.71 2.65179 182.319 2.39579 175.974C1.98079 165.674 2.14779 164.083 3.95179 161.117C5.78679 158.1 5.84279 157.488 4.56679 154.435C3.79479 152.587 3.16279 150.182 3.16279 149.091C3.16279 145.329 5.33379 136.998 6.17779 137.519C6.64379 137.807 7.28779 137.616 7.60979 137.095C7.93179 136.574 7.73779 135.866 7.17879 135.52C6.61979 135.175 6.16279 134.442 6.16279 133.892C6.16279 133.342 6.56479 133.14 7.05579 133.444C7.54779 133.748 8.24879 132.804 8.61379 131.348C8.98579 129.866 8.82679 128.42 8.25279 128.065C6.69279 127.102 12.2828 112.842 13.9668 113.488C14.9328 113.859 15.1118 113.388 14.6248 111.754C13.9668 109.546 13.9808 109.542 15.5278 111.51C17.2608 113.715 17.1388 114.093 17.5378 105.231C17.6068 103.702 19.5588 99.4272 21.8768 95.7312C24.1938 92.0342 25.9938 89.0242 25.8768 89.0422C25.7588 89.0592 24.7888 89.7342 23.7218 90.5422ZM116.766 96.8432C116.483 97.3022 116.886 97.6772 117.663 97.6772C118.44 97.6772 118.843 97.3022 118.56 96.8432C118.277 96.3852 117.873 96.0102 117.663 96.0102C117.453 96.0102 117.049 96.3852 116.766 96.8432ZM222.163 97.4512C222.163 98.3082 222.613 99.0102 223.163 99.0102C223.713 99.0102 224.163 98.5872 224.163 98.0692C224.163 97.5512 223.713 96.8502 223.163 96.5102C222.613 96.1702 222.163 96.5942 222.163 97.4512ZM112.143 100.534C111.447 101.372 111.072 102.252 111.308 102.489C111.545 102.725 112.288 102.04 112.959 100.965C114.411 98.6402 113.927 98.3852 112.143 100.534ZM124.172 101.499C123.492 102.318 122.568 102.761 122.119 102.483C121.669 102.205 121.065 102.36 120.776 102.827C119.752 104.483 123.18 103.648 124.814 101.843C125.726 100.835 126.233 100.01 125.94 100.01C125.648 100.01 124.852 100.68 124.172 101.499ZM220.781 103.17C220.433 104.908 220.377 106.558 220.656 106.836C220.935 107.115 221.163 106.567 221.163 105.618C221.163 104.669 221.548 104.13 222.019 104.421C222.489 104.712 222.662 103.838 222.402 102.48C221.786 99.2592 221.542 99.3632 220.781 103.17ZM105.163 106.166C102.688 108.42 101.379 109.76 102.255 109.145C103.131 108.53 104.143 108.248 104.505 108.519C104.867 108.789 104.974 108.746 104.744 108.424C104.513 108.102 105.75 106.54 107.494 104.953C109.237 103.367 110.438 102.069 110.163 102.069C109.888 102.069 107.638 103.913 105.163 106.166ZM117.603 106.108C116.737 107.508 118.919 108.009 120.034 106.666C120.862 105.667 120.757 105.343 119.603 105.343C118.763 105.343 117.862 105.687 117.603 106.108ZM19.8008 108.51C20.1178 109.335 20.5538 110.01 20.7698 110.01C20.9858 110.01 21.1628 109.335 21.1628 108.51C21.1628 107.685 20.7268 107.01 20.1938 107.01C19.6618 107.01 19.4848 107.685 19.8008 108.51ZM115.514 108.694C115.89 109.071 114.728 110.983 112.931 112.944L109.663 116.51L113.374 113.102C116.593 110.145 117.459 108.01 115.437 108.01C115.103 108.01 115.138 108.318 115.514 108.694ZM219.321 110.01C219.321 111.385 219.548 111.948 219.825 111.26C220.103 110.573 220.103 109.448 219.825 108.76C219.548 108.073 219.321 108.635 219.321 110.01ZM19.1628 112.131C19.1628 112.679 19.6888 112.803 20.3328 112.405C21.1198 111.919 21.2938 112.227 20.8638 113.346C20.5128 114.261 20.6138 115.01 21.0868 115.01C21.7638 115.01 23.1628 112.739 23.1628 111.641C23.1628 111.528 22.2628 111.368 21.1628 111.285C20.0628 111.202 19.1628 111.583 19.1628 112.131ZM95.3918 113.971C94.1418 115.013 93.4668 116.077 93.8918 116.335C94.3158 116.593 95.4718 115.725 96.4598 114.407C98.6078 111.541 98.4048 111.458 95.3918 113.971ZM217.819 115.216C217.502 116.43 217.449 117.63 217.703 117.883C217.956 118.136 218.163 117.792 218.163 117.118C218.163 116.444 218.571 116.144 219.07 116.452C219.568 116.761 219.741 116.112 219.453 115.011C218.787 112.464 218.531 112.496 217.819 115.216ZM25.6628 120.01C26.0028 120.56 26.7308 121.01 27.2808 121.01C27.8308 121.01 28.0028 120.56 27.6628 120.01C27.3228 119.46 26.5948 119.01 26.0448 119.01C25.4948 119.01 25.3228 119.46 25.6628 120.01ZM216.242 121.593C216.29 122.758 216.527 122.995 216.846 122.198C217.135 121.476 217.099 120.613 216.767 120.281C216.435 119.949 216.199 120.539 216.242 121.593ZM85.7028 122.357C84.2638 123.409 84.1458 123.882 85.1658 124.512C86.0288 125.045 86.2298 124.928 85.7578 124.165C85.3358 123.48 85.6798 123.01 86.6038 123.01C87.4608 123.01 88.1628 122.56 88.1628 122.01C88.1628 120.709 87.9068 120.745 85.7028 122.357ZM101.035 125.76C99.7918 127.346 99.8268 127.381 101.413 126.138C103.079 124.831 103.608 124.01 102.785 124.01C102.578 124.01 101.79 124.797 101.035 125.76ZM214.883 126.342C213.769 129.175 213.951 130.622 215.257 129.316C215.858 128.715 216.183 127.387 215.977 126.366C215.617 124.576 215.578 124.575 214.883 126.342ZM81.4958 127.661C81.4958 128.645 81.8328 128.699 82.8298 127.872C83.5628 127.263 84.1628 126.67 84.1628 126.554C84.1628 126.438 83.5628 126.343 82.8298 126.343C82.0958 126.343 81.4958 126.936 81.4958 127.661ZM96.1628 130.51C95.6398 131.885 94.7998 133.01 94.2948 133.01C93.7898 133.01 93.0748 133.797 92.7058 134.758C92.2658 135.905 93.0318 135.552 94.9318 133.731C96.5258 132.204 97.8298 130.293 97.8298 129.483C97.8298 127.317 97.2378 127.682 96.1628 130.51ZM72.0588 135.76C68.4558 139.473 62.9048 145.543 59.7228 149.249C56.5408 152.956 53.4688 155.699 52.8958 155.345C52.2578 154.951 52.1568 155.192 52.6368 155.967C53.0668 156.664 53.0218 157.521 52.5348 157.872C51.5568 158.578 46.1178 165.815 38.5268 176.51C31.9348 185.798 31.9528 185.762 33.3008 186.595C33.9538 186.999 34.2058 186.889 33.8708 186.347C33.5398 185.812 34.3708 184.187 35.7168 182.736C37.0618 181.285 38.1628 179.693 38.1628 179.2C38.1628 178.706 39.2668 177.111 40.6148 175.656C41.9638 174.201 42.8288 173.01 42.5388 173.01C42.2478 173.01 43.3948 171.844 45.0888 170.419C46.7828 168.994 47.9078 167.406 47.5898 166.891C47.2708 166.376 48.4428 164.617 50.1928 162.982C51.9428 161.348 53.0148 160.01 52.5758 160.01C52.1368 160.01 53.2048 158.827 54.9498 157.382C56.6948 155.936 57.9108 154.411 57.6518 153.993C57.3938 153.575 58.7468 152.039 60.6588 150.581C62.5708 149.122 64.0298 147.385 63.8988 146.719C63.7688 146.054 64.2588 145.634 64.9868 145.785C65.7158 145.936 66.0678 145.665 65.7688 145.182C65.4708 144.699 66.7878 143.003 68.6948 141.413C70.6018 139.822 72.1628 138.162 72.1628 137.724C72.1628 136.491 76.1428 132.51 77.3748 132.51C77.9778 132.51 78.5878 131.723 78.7288 130.76C78.8698 129.797 78.9008 129.01 78.7978 129.01C78.6938 129.01 75.6618 132.047 72.0588 135.76ZM210.194 139.26C208.344 143.797 206.208 149.013 205.446 150.851C204.668 152.726 204.522 153.906 205.112 153.542C205.69 153.184 206.163 152.217 206.163 151.392C206.163 150.513 206.641 150.187 207.318 150.605C208.004 151.03 208.202 150.882 207.805 150.239C207.078 149.064 209.031 144.01 210.212 144.01C210.613 144.01 210.92 143.448 210.894 142.76C210.775 139.548 211.248 137.945 212.152 138.503C212.718 138.853 212.886 138.452 212.545 137.562C212.217 136.708 212.335 136.01 212.806 136.009C213.277 136.009 213.728 134.884 213.807 133.509C213.887 132.135 213.863 131.01 213.754 131.01C213.645 131.01 212.043 134.723 210.194 139.26ZM89.3678 139.476C88.3008 140.832 87.0718 141.62 86.6348 141.226C86.1988 140.832 86.0968 140.96 86.4078 141.511C86.7178 142.061 85.4408 144.064 83.5678 145.963C81.6948 147.861 80.1628 149.976 80.1628 150.662C80.1628 151.349 79.5878 152.27 78.8858 152.71C77.0048 153.888 70.8538 162.007 71.8288 162.025C72.2878 162.034 71.9878 162.467 71.1628 162.989C70.3378 163.51 69.6628 164.302 69.6628 164.748C69.6628 165.497 68.6408 166.873 65.4128 170.473C64.7258 171.24 64.1628 172.526 64.1628 173.332C64.1628 174.137 63.4588 175.066 62.5998 175.396C61.7398 175.726 61.3318 176.474 61.6928 177.059C62.3768 178.166 67.0678 174.074 66.4908 172.874C66.1768 172.22 70.0378 170.697 71.4558 170.916C71.8918 170.983 71.7568 170.12 71.1568 168.998C70.2788 167.357 70.4928 166.356 72.2478 163.891C73.7018 161.849 74.6728 161.218 75.1578 162.001C75.6748 162.838 76.0598 162.72 76.4918 161.594C76.8268 160.723 78.1268 159.974 79.3818 159.931C80.6358 159.888 81.1478 159.641 80.5188 159.383C79.8898 159.125 79.6228 157.965 79.9268 156.806C80.3488 155.191 80.1528 154.898 79.0908 155.555C78.3278 156.026 78.7108 155.084 79.9438 153.461C86.9088 144.287 92.1298 137.01 91.7468 137.01C91.5058 137.01 90.4348 138.12 89.3678 139.476ZM45.1628 156.069C45.1628 156.651 45.6128 156.85 46.1628 156.51C46.7128 156.17 47.1628 155.694 47.1628 155.451C47.1628 155.208 46.7128 155.01 46.1628 155.01C45.6128 155.01 45.1628 155.487 45.1628 156.069ZM202.744 156.659C201.917 158.814 202.369 159.128 203.903 157.462C204.585 156.722 204.745 155.87 204.258 155.569C203.771 155.268 203.09 155.758 202.744 156.659ZM191.035 176.76C189.792 178.346 189.827 178.381 191.413 177.138C193.079 175.831 193.608 175.01 192.785 175.01C192.578 175.01 191.79 175.797 191.035 176.76ZM66.1628 176.903C66.1628 177.394 66.9018 178.079 67.8038 178.426C69.1768 178.953 69.2388 178.806 68.1818 177.533C66.7418 175.798 66.1628 175.617 66.1628 176.903ZM60.0718 179.087C59.2968 179.578 59.1128 180 59.6628 180.025C60.2128 180.05 59.8658 180.535 58.8918 181.102C57.9178 181.669 57.3818 182.555 57.7008 183.071C58.0198 183.588 57.8438 184.01 57.3098 184.01C56.7758 184.01 56.4628 185.139 56.6148 186.519C56.8508 188.675 56.6708 188.851 55.3348 187.769C54.1048 186.774 53.9368 186.772 54.5298 187.76C54.9678 188.489 54.7698 189.01 54.0548 189.01C53.3808 189.01 53.0918 189.273 53.4128 189.593C53.7338 189.914 53.1338 191.039 52.0798 192.093C51.0248 193.148 50.1628 194.91 50.1628 196.01C50.1628 197.11 49.7128 198.01 49.1628 198.01C48.6128 198.01 48.1628 198.91 48.1628 200.01C48.1628 201.11 47.7248 202.01 47.1888 202.01C46.6528 202.01 45.5158 203.36 44.6628 205.01C43.8098 206.66 43.4378 208.01 43.8368 208.01C44.2358 208.01 44.0228 208.55 43.3628 209.21C42.7028 209.87 42.1628 211.247 42.1628 212.269C42.1628 213.42 41.7228 213.856 41.0078 213.415C40.2928 212.972 40.1248 213.14 40.5678 213.855C40.9598 214.49 40.8528 215.01 40.3298 215.01C39.4158 215.01 37.6608 219.715 37.9988 221.26C38.0888 221.672 37.7268 222.01 37.1938 222.01C36.6618 222.01 36.5128 222.759 36.8638 223.674C37.3308 224.89 37.1418 225.115 36.1628 224.51C35.1838 223.905 34.9948 224.13 35.4618 225.346C35.8128 226.261 35.7008 227.01 35.2118 227.01C34.2188 227.01 31.6638 234.516 30.7008 240.26C30.3548 242.323 29.6428 244.01 29.1178 244.01C28.5928 244.01 28.1628 245.529 28.1628 247.385C28.1628 252.321 27.0518 257.059 26.0408 256.435C25.0478 255.821 25.0318 256.082 24.8038 276.172C24.7128 284.237 24.9808 290.622 25.3998 290.363C25.8198 290.104 26.2188 291.156 26.2878 292.701C26.3878 294.937 26.5608 294.694 27.1358 291.51C28.1828 285.711 28.5468 284.595 29.6628 283.775C30.2818 283.32 30.1868 283.035 29.4128 283.025C28.7258 283.017 28.1628 282.308 28.1628 281.451C28.1628 280.594 27.7128 280.17 27.1628 280.51C26.5318 280.9 26.1628 278.52 26.1628 274.069C26.1628 268.589 26.4848 267.01 27.6038 267.01C28.3968 267.01 29.2918 267.409 29.5928 267.897C29.8938 268.384 31.7578 269.087 33.7358 269.458C36.2998 269.939 37.1718 270.544 36.7778 271.571C36.4738 272.362 36.6308 273.01 37.1268 273.01C37.6228 273.01 38.3158 273.917 38.6678 275.025C39.0188 276.133 39.6718 276.813 40.1188 276.537C40.5648 276.261 41.2538 279.491 41.6498 283.715C42.0458 287.939 42.7068 292.308 43.1198 293.424C43.7658 295.17 43.9358 295.012 44.3358 292.284C44.5978 290.502 44.3998 289.363 43.8838 289.682C43.3618 290.005 43.1768 288.693 43.4548 286.629C43.7238 284.639 43.5428 283.01 43.0528 283.01C42.5638 283.01 42.1698 281.998 42.1778 280.76C42.1908 278.941 42.3788 278.797 43.1628 280.01C43.9068 281.161 44.1318 280.812 44.1318 278.51C44.1318 276.208 43.9068 275.859 43.1628 277.01C42.4588 278.1 42.1938 277.28 42.1938 274.01C42.1938 270.74 42.4588 269.92 43.1628 271.01C43.8588 272.087 44.1368 271.077 44.1478 267.427C44.1558 264.631 44.4398 262.066 44.7788 261.728C45.1168 261.389 45.5298 259.294 45.6958 257.073C45.8608 254.851 46.7348 252.295 47.6368 251.393C48.5398 250.49 49.0408 249.135 48.7518 248.381C48.4628 247.627 48.6878 247.01 49.2528 247.01C49.8188 247.01 50.0028 246.56 49.6628 246.01C49.3228 245.46 49.5068 245.01 50.0728 245.01C50.6378 245.01 50.8718 244.414 50.5918 243.686C50.3128 242.958 51.2438 241.202 52.6618 239.784C54.0798 238.366 55.4298 236.22 55.6618 235.015C55.8938 233.81 57.7888 231.01 59.8728 228.792C61.9578 226.574 64.4498 223.915 65.4128 222.884C66.3758 221.853 66.8268 221.01 66.4158 221.01C66.0048 221.01 67.8968 219.426 70.6188 217.491C73.3408 215.556 75.8148 213.587 76.1158 213.117C76.4168 212.646 79.0248 211.249 81.9128 210.012C84.8008 208.776 87.1628 207.419 87.1628 206.998C87.1628 206.577 88.7378 205.937 90.6628 205.576C92.5878 205.215 94.1628 204.563 94.1628 204.127C94.1628 203.691 95.7418 203.275 97.6728 203.202C99.6028 203.13 102.019 202.622 103.041 202.075C104.063 201.528 105.173 201.354 105.507 201.688C105.841 202.022 106.772 201.749 107.576 201.082C108.541 200.281 110.675 200.087 113.851 200.511C117.365 200.979 118.258 200.868 117.163 200.097C115.98 199.264 116.349 199.037 118.913 199.025C120.7 199.017 122.163 199.348 122.163 199.76C122.162 200.172 123.962 200.443 126.163 200.362C128.363 200.281 130.163 200.576 130.163 201.018C130.163 201.461 131.063 201.587 132.163 201.3C133.358 200.987 134.163 201.269 134.163 202C134.163 202.673 134.783 202.986 135.541 202.695C136.299 202.404 137.327 202.574 137.826 203.073C138.325 203.572 140.154 204.135 141.891 204.326C143.629 204.516 145.714 205.223 146.527 205.897C147.339 206.571 148.927 207.192 150.057 207.277C151.187 207.362 152.312 207.955 152.557 208.595C152.803 209.235 154.383 210.24 156.069 210.827C158.5 211.675 159.44 211.59 160.613 210.417C161.426 209.604 162.417 208.967 162.815 209.002C163.212 209.037 163.636 208.395 163.756 207.576C163.947 206.278 163.673 206.285 161.618 207.632C159.25 209.183 155.163 208.747 155.163 206.943C155.163 206.43 154.236 206.01 153.104 206.01C151.787 206.01 151.305 205.589 151.768 204.84C152.255 204.052 151.944 203.88 150.815 204.313C148.929 205.037 144.163 203.195 144.163 201.742C144.163 201.222 143.488 201.055 142.663 201.372C141.838 201.688 141.163 201.459 141.163 200.862C141.163 200.265 140.274 200.009 139.188 200.293C137.391 200.763 130.901 199.669 127.163 198.266C126.338 197.956 123.413 197.84 120.663 198.008C117.913 198.175 113.077 198.357 109.915 198.411C106.754 198.466 104.167 198.848 104.165 199.26C104.164 199.672 103.461 200.01 102.604 200.01C101.747 200.01 101.323 199.56 101.663 199.01C102.003 198.46 101.853 198.01 101.329 198.01C100.805 198.01 100.151 198.6 99.8738 199.321C99.5968 200.041 97.4118 201.2 95.0168 201.894C92.6218 202.589 88.5408 204.246 85.9478 205.575C82.0878 207.554 81.3478 207.693 81.8678 206.337C82.2938 205.226 82.1178 204.92 81.3328 205.405C80.6888 205.803 80.1628 206.776 80.1628 207.569C80.1628 209.342 79.0168 209.414 77.1608 207.76C75.9788 206.706 75.9548 206.77 77.0098 208.171C78.3268 209.921 77.0278 211.662 75.2318 210.553C74.7198 210.236 73.9758 210.504 73.5778 211.148C73.0978 211.925 73.3268 212.074 74.2578 211.59C75.0308 211.19 74.8318 211.539 73.8158 212.367C72.7998 213.195 71.2248 213.636 70.3158 213.347C69.0288 212.938 68.9628 213.036 70.0198 213.791C72.6868 215.696 69.4138 215.923 65.8048 214.082C63.7958 213.058 61.9018 212.623 61.5978 213.115C61.2938 213.607 59.8338 214.062 58.3538 214.126C56.2528 214.217 56.1008 214.352 57.6628 214.742C58.7628 215.017 59.9938 215.752 60.3978 216.376C60.8638 217.096 61.1378 216.871 61.1478 215.76C61.1558 214.797 61.7568 214.01 62.4818 214.01C63.3598 214.01 63.7928 215.358 63.7778 218.039C63.7608 220.982 63.3948 221.929 62.4178 221.555C61.6838 221.273 61.2098 221.597 61.3658 222.276C61.5218 222.955 61.2018 223.676 60.6558 223.88C60.1098 224.083 58.6248 224.644 57.3558 225.127C56.0868 225.609 55.2598 225.663 55.5168 225.246C56.2748 224.019 53.4078 220.762 51.9868 221.235C51.2698 221.474 49.8588 220.621 48.8508 219.34C47.8428 218.058 46.1768 217.01 45.1488 217.01C44.1218 217.01 43.0238 216.594 42.7088 216.085C41.8428 214.682 44.2898 210.01 45.8908 210.01C46.8488 210.01 47.0928 209.363 46.6548 207.985C46.2368 206.667 46.4308 206.056 47.2128 206.235C47.8728 206.386 48.6398 205.885 48.9178 205.121C49.2278 204.266 48.9848 204.002 48.2848 204.435C47.4448 204.954 47.4488 204.475 48.3018 202.605C48.9358 201.212 49.9088 200.353 50.4638 200.696C51.0178 201.039 51.1678 200.827 50.7958 200.225C50.4238 199.623 51.0768 197.641 52.2478 195.82C53.4178 194 54.1538 193.201 53.8828 194.046C53.5648 195.036 54.0218 195.581 55.1698 195.581C56.6258 195.581 56.7878 195.153 56.0568 193.231C54.9228 190.248 54.9348 190.01 56.2218 190.01C56.8038 190.01 57.0028 190.46 56.6628 191.01C56.3228 191.56 56.5698 192.01 57.2108 192.01C57.8518 192.01 58.1228 191.349 57.8138 190.542C57.5038 189.735 57.6608 188.82 58.1628 188.51C58.6648 188.2 58.7988 187.173 58.4598 186.228C58.1208 185.283 58.2128 184.845 58.6638 185.254C59.8368 186.318 62.4268 182.254 61.5288 180.758C61.0208 179.913 61.3258 179.954 62.4708 180.882C63.9198 182.058 64.1628 182.037 64.1628 180.739C64.1628 178.825 61.9188 177.918 60.0718 179.087ZM185.678 183.76L181.951 188.51L185.484 184.854C187.428 182.843 189.2 181.381 189.424 181.604C189.647 181.827 189.83 181.335 189.83 180.51C189.83 179.685 189.734 179.01 189.617 179.01C189.5 179.01 187.727 181.147 185.678 183.76ZM28.2738 192.138C26.5208 194.959 25.3278 197.509 25.6248 197.805C25.9208 198.101 26.1628 197.792 26.1628 197.118C26.1628 196.444 26.6828 196.213 27.3178 196.605C27.9918 197.022 28.2018 196.882 27.8228 196.269C27.4658 195.692 27.8748 194.951 28.7318 194.622C29.5888 194.293 30.0098 193.571 29.6668 193.017C29.3248 192.463 29.5968 192.01 30.2708 192.01C30.9448 192.01 31.2118 191.726 30.8648 191.379C30.5178 191.031 30.6828 189.906 31.2328 188.879C33.2718 185.069 31.3578 187.178 28.2738 192.138ZM3.26279 190.178C3.20779 191.096 2.86179 192.632 2.49279 193.592C2.03579 194.783 2.19479 195.108 2.99279 194.615C3.77279 194.133 4.20179 194.829 4.27879 196.701C4.34279 198.246 4.58179 198.822 4.80979 197.982C5.03779 197.142 4.80579 194.667 4.29379 192.482C3.78179 190.297 3.31879 189.261 3.26279 190.178ZM173.413 197.155C168.876 201.619 165.163 205.525 165.163 205.837C165.163 206.148 166.655 204.956 168.479 203.189C170.302 201.421 172.14 200.32 172.562 200.742C172.984 201.165 173.18 200.835 172.996 200.01C172.812 199.18 173.254 198.633 173.987 198.785C174.716 198.936 175.046 198.629 174.721 198.104C174.154 197.186 175.854 195.557 177.413 195.525C177.825 195.517 178.19 195.06 178.224 194.51C178.257 193.96 179.235 192.498 180.398 191.26C185.251 186.094 181.074 189.62 173.413 197.155ZM5.35779 202.51C5.37779 204.16 5.60179 204.714 5.85579 203.741C6.10979 202.768 6.09279 201.418 5.81879 200.741C5.54479 200.064 5.33779 200.86 5.35779 202.51ZM22.3118 202.331C21.7088 203.057 19.2288 207.832 16.8008 212.942C13.2338 220.447 12.2028 221.903 11.4298 220.522C10.6518 219.133 10.4558 219.394 10.3848 221.911C10.2778 225.684 12.8268 226.195 13.7338 222.582C14.0688 221.247 14.9698 219.914 15.7358 219.62C16.5768 219.297 16.8708 218.411 16.4758 217.384C16.1158 216.445 16.2358 215.937 16.7428 216.25C17.2488 216.562 17.7258 215.762 17.8038 214.472C17.8808 213.182 18.8928 210.793 20.0538 209.164C21.2138 207.534 22.1628 205.708 22.1628 205.106C22.1628 204.503 22.5378 204.01 22.9958 204.01C23.4548 204.01 23.8298 203.335 23.8298 202.51C23.8298 200.676 23.6978 200.661 22.3118 202.331ZM5.77979 207.565C5.39679 208.563 5.60679 209.667 6.25679 210.068C6.89579 210.463 7.13379 211.248 6.78479 211.813C6.43579 212.377 6.64479 213.004 7.24879 213.205C7.85279 213.407 8.41779 214.752 8.50479 216.195C8.59179 217.638 8.99979 218.61 9.41279 218.355C10.5668 217.643 10.3238 215.938 8.31379 210.644C6.89179 206.902 6.30779 206.191 5.77979 207.565ZM48.1628 209.01C48.1628 209.56 48.6398 210.01 49.2218 210.01C49.8038 210.01 50.0028 209.56 49.6628 209.01C49.3228 208.46 48.8468 208.01 48.6038 208.01C48.3608 208.01 48.1628 208.46 48.1628 209.01ZM183.356 216.691C181.372 217.486 177.299 221.813 177.936 222.449C178.244 222.758 178.074 223.01 177.557 223.01C177.041 223.01 176.587 224.792 176.55 226.971C176.512 229.149 176.859 230.698 177.322 230.412C178.105 229.928 178.587 231.434 178.257 233.334C178.178 233.788 178.507 233.915 178.988 233.618C179.47 233.321 181.565 235.987 183.645 239.544C185.725 243.1 187.569 246.01 187.744 246.01C188.582 246.01 184.656 238.196 182.575 235.723C179.094 231.586 177.512 225.596 179.111 222.608C180.993 219.091 184.82 217.625 188.327 219.078C189.887 219.724 191.163 220.948 191.163 221.798C191.163 222.648 191.457 223.049 191.816 222.69C192.54 221.966 197.152 227.782 197.181 229.454C197.191 230.035 198.605 232.535 200.324 235.01C202.043 237.485 203.116 238.61 202.709 237.51C202.303 236.41 201.876 235.06 201.761 234.51C201.501 233.269 194.181 221.89 192.727 220.469C188.971 216.795 186.044 215.615 183.356 216.691ZM111.818 220.839C110.901 221.852 110.163 224.33 110.163 226.398C110.163 228.63 109.761 229.88 109.163 229.51C108.613 229.17 108.163 229.567 108.163 230.392C108.163 231.217 108.661 232.2 109.27 232.576C110.042 233.053 109.966 233.525 109.02 234.135C107.895 234.86 107.919 235.176 109.163 235.978C110.432 236.797 110.708 235.963 110.957 230.564C111.144 226.501 111.779 223.743 112.707 222.974C113.508 222.309 114.163 222.061 114.163 222.423C114.163 222.784 115.08 222.59 116.201 221.99C118.362 220.833 122.543 221.586 121.683 222.977C121.403 223.43 121.847 224.058 122.669 224.374C123.491 224.689 124.163 226.161 124.163 227.645C124.163 231.337 125.269 229.971 125.378 226.145C125.548 220.16 115.862 216.37 111.818 220.839ZM43.0488 222.643C45.0028 224.012 45.5218 224.052 46.2568 222.893C46.9578 221.785 47.1348 221.847 47.1478 223.203C47.1578 224.35 47.8028 224.772 49.1508 224.512C50.2448 224.302 51.7878 224.778 52.5798 225.57C53.3718 226.362 54.5288 227.01 55.1508 227.01C55.7718 227.01 56.0268 227.422 55.7158 227.925C55.4048 228.428 55.6228 228.997 56.1998 229.189C57.5148 229.627 52.4928 236.465 49.1538 238.782C47.7838 239.732 46.6628 241.148 46.6628 241.927C46.6628 242.707 45.6508 243.419 44.4128 243.51C41.3188 243.738 40.8138 244.489 42.1168 246.924C42.9178 248.421 42.9238 249.01 42.1388 249.01C41.5368 249.01 41.3278 249.467 41.6728 250.026C42.0188 250.585 42.6888 250.803 43.1628 250.51C44.9668 249.395 45.0998 252.045 43.5778 258.782C42.1508 265.103 41.7708 265.76 39.5408 265.76C36.1348 265.76 35.4538 266.771 37.7338 268.439C38.7928 269.213 39.3228 270.183 38.9108 270.595C38.4998 271.007 38.1628 270.818 38.1628 270.177C38.1628 269.535 37.1878 269.01 35.9958 269.01C34.8048 269.01 34.1258 268.714 34.4878 268.352C34.8498 267.99 34.5868 267.004 33.9038 266.16C32.8908 264.908 32.9158 264.779 34.0428 265.457C34.9968 266.032 35.2798 265.86 34.9588 264.899C34.7048 264.135 33.9708 263.454 33.3298 263.385C31.1628 263.153 31.0908 263.014 32.1308 261.071C32.8328 259.757 32.8398 258.928 32.1488 258.502C31.5888 258.155 31.3688 257.485 31.6608 257.013C31.9528 256.541 31.2668 255.86 30.1358 255.501C28.8218 255.084 28.2518 254.246 28.5568 253.179C31.8668 241.623 31.1748 242.136 38.6628 245.685C41.4048 246.985 41.4958 246.974 39.7218 245.558C37.9408 244.138 37.9278 244.01 39.5548 244.01C40.5418 244.01 41.1348 243.455 40.8908 242.76C40.6458 242.06 39.2488 241.643 37.7168 241.812C35.9968 242.002 35.2218 241.723 35.6308 241.062C35.9878 240.483 35.8348 240.01 35.2888 240.01C34.7428 240.01 34.3348 238.675 34.3808 237.044C34.4308 235.302 34.8858 234.339 35.4838 234.708C36.1098 235.095 36.2428 234.661 35.8288 233.582C35.3278 232.276 35.9458 232.491 38.2358 234.418C40.5648 236.378 41.9678 236.854 43.9898 236.369C47.8948 235.433 48.1838 234.682 44.4368 235.206C41.6558 235.594 41.3808 235.448 42.4368 234.141C43.2218 233.172 43.2538 232.871 42.5258 233.307C41.9008 233.682 40.8248 233.308 40.1348 232.476C39.0738 231.198 39.1718 231.07 40.7718 231.647C42.4308 232.247 42.3868 232.027 40.4128 229.856C38.1198 227.334 37.6858 225.416 38.7698 222.592C39.5328 220.604 40.1478 220.611 43.0488 222.643ZM47.1828 237.486C46.3938 238.436 46.3178 239.01 46.9818 239.01C48.1898 239.01 49.5988 237.113 48.9058 236.419C48.6538 236.168 47.8788 236.648 47.1828 237.486ZM110.395 242.01C110.395 243.935 110.601 244.723 110.852 243.76C111.104 242.797 111.104 241.223 110.852 240.26C110.601 239.297 110.395 240.085 110.395 242.01ZM123.967 252.869C123.8 260.615 123.956 267.979 124.313 269.232C124.671 270.485 125.035 270.835 125.122 270.01C125.534 266.095 125.252 239.766 124.793 239.307C124.506 239.02 124.134 245.123 123.967 252.869ZM203.736 242.01C204.104 243.385 204.822 245.185 205.332 246.01C205.976 247.052 206.055 246.747 205.59 245.01C205.222 243.635 204.504 241.835 203.994 241.01C203.35 239.968 203.271 240.273 203.736 242.01ZM187.855 248.37C187.509 249.272 187.662 250.01 188.194 250.01C188.727 250.01 189.079 250.347 188.977 250.76C188.875 251.173 189.469 253.085 190.298 255.01C191.714 258.3 193.825 270.556 194.517 279.51C194.701 281.882 194.895 280.864 194.994 277.01C195.26 266.666 189.58 243.876 187.855 248.37ZM206.765 247.845C206.481 248.304 206.647 250.217 207.134 252.095C208.942 259.074 210.167 266.298 210.313 270.836L210.463 275.51L211.089 271.01C211.433 268.535 211.367 265.17 210.943 263.533C210.519 261.896 210.443 259.702 210.775 258.658C211.203 257.309 211.018 256.982 210.136 257.527C209.219 258.094 209.013 257.487 209.348 255.205C209.621 253.345 209.413 252.356 208.825 252.719C208.247 253.076 208.079 252.441 208.412 251.165C208.777 249.769 208.597 249.242 207.9 249.673C207.219 250.094 207.058 249.727 207.462 248.674C208.126 246.942 207.663 246.392 206.765 247.845ZM109.937 255.76C109.747 256.173 109.878 258.535 110.227 261.01L110.863 265.51L111.013 260.26C111.152 255.41 110.791 253.9 109.937 255.76ZM108.242 270.593C108.29 271.758 108.527 271.995 108.846 271.198C109.135 270.476 109.099 269.613 108.767 269.281C108.435 268.949 108.199 269.539 108.242 270.593ZM110.195 271.01C110.004 272.385 109.868 274.068 109.893 274.749C109.917 275.431 109.538 275.742 109.05 275.44C108.562 275.139 108.163 275.369 108.163 275.951C108.163 276.533 108.644 277.01 109.233 277.01C109.821 277.01 110.157 278.022 109.98 279.26C109.753 280.839 110.669 282.33 113.048 284.26C117.616 287.965 118.253 287.732 114.413 283.76C111.735 280.991 111.216 279.622 110.906 274.51C110.705 271.21 110.385 269.635 110.195 271.01ZM127.232 275.447C128.095 276.343 134.618 281.248 141.726 286.346C150.018 292.292 154.974 296.531 155.551 298.172C157.668 304.192 152.849 309.462 147.184 307.324C144.848 306.442 144.413 306.497 144.843 307.62C145.134 308.378 145.775 308.75 146.268 308.445C146.76 308.141 147.163 308.293 147.163 308.784C147.163 309.274 147.95 309.611 148.913 309.531C156.012 308.946 160.623 299.332 155.611 295.568C154.285 294.573 153.487 293.295 153.836 292.73C154.204 292.135 153.982 292.004 153.31 292.419C152.661 292.82 151.885 292.45 151.551 291.579C151.222 290.722 150.573 290.257 150.108 290.544C149.644 290.831 148.775 290.153 148.178 289.038C147.581 287.923 146.454 287.01 145.673 287.01C144.893 287.01 143.108 285.865 141.708 284.465C140.308 283.065 139.163 282.199 139.163 282.542C139.163 282.884 136.126 281.062 132.413 278.491C128.7 275.921 126.369 274.551 127.232 275.447ZM23.3208 277.01C23.3208 278.385 23.5478 278.948 23.8248 278.26C24.1028 277.573 24.1028 276.448 23.8248 275.76C23.5478 275.073 23.3208 275.635 23.3208 277.01ZM209.775 289.314C208.712 297.329 205.7 307.808 202.473 314.712C200.982 317.901 199.515 320.735 199.213 321.01C198.91 321.285 197.866 323.31 196.892 325.51C195.837 327.891 195.675 328.808 196.49 327.776C197.244 326.822 198.226 326.372 198.672 326.776C199.118 327.179 199.158 326.944 198.76 326.253C198.342 325.527 198.67 324.753 199.536 324.42C200.416 324.083 200.786 323.19 200.43 322.263C200.031 321.224 200.22 320.927 200.982 321.398C201.762 321.88 201.925 321.554 201.482 320.398C201.038 319.241 201.201 318.915 201.982 319.398C202.762 319.88 202.925 319.554 202.482 318.398C202.038 317.241 202.201 316.915 202.982 317.398C203.716 317.852 203.94 317.593 203.594 316.691C203.294 315.908 203.757 314.559 204.623 313.693C205.49 312.826 206.137 311.756 206.062 311.314C205.723 309.313 206.233 306.935 206.913 307.35C207.325 307.602 207.751 306.174 207.858 304.177C207.965 302.18 208.531 300.387 209.114 300.193C209.698 299.998 209.953 299.48 209.682 299.04C209.41 298.601 209.66 295.687 210.237 292.566C210.814 289.444 211.12 286.13 210.916 285.2C210.712 284.271 210.198 286.122 209.775 289.314ZM117.568 288.165C117.165 288.816 117.29 289.05 117.853 288.701C118.403 288.362 120.554 289.642 122.634 291.547C124.713 293.452 126.808 295.01 127.289 295.01C127.77 295.01 128.163 295.46 128.163 296.01C128.163 296.56 128.501 296.939 128.913 296.851C130.236 296.571 133.167 298.194 132.701 298.948C132.454 299.349 132.977 299.677 133.864 299.677C134.987 299.677 134.594 298.95 132.57 297.284C130.971 295.969 128.763 294.125 127.663 293.187C126.563 292.249 124.425 290.85 122.913 290.077C121.401 289.304 120.163 288.298 120.163 287.841C120.163 286.612 118.391 286.833 117.568 288.165ZM193.163 289.402C193.163 290.351 192.825 290.921 192.413 290.669C192.001 290.416 191.638 292.048 191.608 294.295C191.577 296.542 191.063 298.543 190.464 298.743C189.865 298.943 189.623 300.055 189.927 301.214C190.3 302.641 190.108 303.094 189.332 302.614C188.589 302.155 188.395 302.452 188.781 303.458C189.109 304.312 188.893 305.01 188.301 305.01C187.709 305.01 187.513 305.758 187.864 306.674C188.291 307.785 188.118 308.1 187.344 307.622C186.588 307.154 186.392 307.444 186.781 308.458C187.11 309.314 186.854 310.01 186.211 310.01C185.57 310.01 185.323 310.46 185.663 311.01C186.003 311.56 185.861 312.01 185.347 312.01C184.833 312.01 184.137 313.39 183.8 315.076C183.402 317.066 182.777 317.89 182.02 317.422C181.335 316.998 181.122 317.134 181.503 317.751C181.86 318.328 181.451 319.069 180.594 319.398C179.737 319.727 179.318 320.452 179.663 321.01C180.008 321.568 179.589 322.293 178.732 322.622C177.875 322.951 177.401 323.586 177.678 324.035C177.955 324.483 177.053 325.738 175.673 326.824C174.292 327.91 173.163 329.322 173.163 329.963C173.163 330.604 172.643 330.807 172.008 330.415C171.293 329.972 171.125 330.14 171.568 330.855C171.96 331.49 171.755 332.01 171.113 332.01C169.966 332.01 167.496 333.986 162.287 339.071C159.089 342.192 154.169 345.343 154.148 344.283C154.139 343.858 153.802 344.01 153.398 344.62C152.264 346.335 146.222 349.165 145.134 348.492C144.6 348.162 144.163 348.395 144.163 349.01C144.163 349.625 143.744 349.869 143.232 349.553C142.72 349.236 142.019 349.435 141.673 349.994C141.328 350.553 139.497 351.01 137.604 351.01C135.711 351.01 134.163 351.439 134.163 351.964C134.163 352.489 132.561 352.713 130.603 352.463C128.377 352.178 127.275 352.382 127.662 353.008C129.454 355.907 142.525 352.162 154.996 345.177C159.578 342.61 164.641 339.866 166.246 339.08C167.85 338.293 169.163 337.267 169.163 336.799C169.163 336.332 171.526 333.133 174.413 329.691C177.3 326.248 180.735 321.997 182.045 320.243C183.355 318.49 184.724 317.239 185.088 317.463C185.451 317.688 185.808 317.071 185.882 316.093C186.115 313.002 192.391 299.011 193.552 298.995C194.296 298.984 194.269 298.729 193.469 298.22C192.59 297.661 192.533 296.309 193.253 293.103C193.792 290.707 193.992 288.505 193.698 288.211C193.404 287.917 193.163 288.453 193.163 289.402ZM26.8728 298.01C26.5858 299.11 26.7578 300.01 27.2568 300.01C27.7548 300.01 28.1628 299.11 28.1628 298.01C28.1628 296.91 27.9898 296.01 27.7798 296.01C27.5688 296.01 27.1608 296.91 26.8728 298.01ZM44.3808 297.734C44.6668 298.83 44.4528 300.527 43.9058 301.505C43.2358 302.703 43.2418 303.079 43.9268 302.656C44.4858 302.31 45.6918 303.711 46.6078 305.769C47.5228 307.826 48.9478 310.748 49.7748 312.262C50.6018 313.776 51.0008 315.463 50.6618 316.012C50.3228 316.561 50.4958 317.01 51.0468 317.01C51.5968 317.01 51.8728 317.922 51.6578 319.037C51.4398 320.165 51.6948 320.799 52.2318 320.468C52.7618 320.14 52.9298 319.34 52.6048 318.691C52.2798 318.041 52.7088 318.364 53.5568 319.407C54.4048 320.451 54.8548 321.699 54.5568 322.182C54.2578 322.665 54.4318 322.936 54.9408 322.785C55.4508 322.634 57.3968 324.33 59.2658 326.554C61.1338 328.778 64.3508 332.334 66.4128 334.457C68.4758 336.58 70.1628 338.724 70.1628 339.222C70.1628 339.721 70.5818 339.869 71.0938 339.553C71.6058 339.236 72.2808 339.392 72.5938 339.898C73.4308 341.252 84.2808 347.225 84.8568 346.649C85.1278 346.379 83.8448 345.387 82.0058 344.445C80.1668 343.503 77.1848 341.445 75.3778 339.871C73.5718 338.298 71.6328 337.01 71.0688 337.01C70.5058 337.01 70.3658 336.49 70.7578 335.855C71.1788 335.175 71.0348 334.971 70.4088 335.358C69.1818 336.116 56.9408 323.178 57.7088 321.935C57.9898 321.482 57.2938 320.615 56.1628 320.01C55.0318 319.405 54.3468 318.521 54.6408 318.045C54.9348 317.57 54.6978 317.022 54.1148 316.827C53.5308 316.633 52.9338 315.658 52.7878 314.662C52.6418 313.665 51.8918 312.461 51.1218 311.984C50.3508 311.508 50.0458 310.793 50.4438 310.396C50.8418 309.998 50.5228 308.961 49.7358 308.091C48.9488 307.222 48.3018 306.285 48.2988 306.01C48.2948 305.735 48.0518 304.835 47.7578 304.01C47.4648 303.185 47.0638 301.186 46.8668 299.568C46.6708 297.95 45.9138 296.427 45.1848 296.184C44.2808 295.883 44.0248 296.376 44.3808 297.734ZM27.8238 302.451C27.4078 303.535 27.7538 305.262 28.6628 306.651C29.5138 307.948 29.8608 309.017 29.4358 309.025C29.0108 309.034 29.2138 309.391 29.8878 309.819C30.5618 310.247 31.2368 311.703 31.3878 313.054C31.5388 314.405 32.2298 316.109 32.9218 316.841C33.6148 317.572 33.9548 318.538 33.6778 318.986C33.4008 319.434 33.8128 320.045 34.5918 320.345C35.7838 320.802 35.7658 320.304 34.4838 317.235C33.5758 315.062 33.1628 312.047 33.4648 309.796C33.7518 307.659 33.5788 306.253 33.0678 306.569C32.5698 306.876 32.1628 306.625 32.1628 306.01C32.1628 305.395 31.7548 305.144 31.2558 305.452C30.7578 305.761 30.6028 305.042 30.9138 303.855C31.2778 302.464 31.0968 301.933 30.4058 302.36C29.8158 302.724 29.1528 302.48 28.9318 301.817C28.6898 301.09 28.2498 301.342 27.8238 302.451ZM136.163 302.041C136.163 302.609 136.95 303.316 137.913 303.614C138.876 303.912 140.563 304.597 141.663 305.136C142.984 305.783 142.71 305.249 140.857 303.563C137.907 300.879 136.163 300.313 136.163 302.041ZM35.6678 323.002C35.3248 323.557 35.5478 324.01 36.1628 324.01C36.7778 324.01 36.9598 324.53 36.5678 325.165C36.1248 325.88 36.2928 326.048 37.0078 325.605C37.6428 325.213 38.1968 325.256 38.2398 325.701C38.5468 328.952 39.3628 330.618 41.5808 332.524C42.9808 333.727 43.7978 335.076 43.3948 335.521C42.9928 335.966 43.1928 336.027 43.8408 335.656C44.5278 335.262 45.2858 335.821 45.6578 336.995C46.0098 338.103 46.7918 339.01 47.3968 339.01C48.0018 339.01 48.2178 339.289 47.8768 339.629C47.1308 340.375 50.0788 343.491 51.5918 343.555C52.1808 343.58 52.5128 344.255 52.3298 345.055C52.1458 345.855 52.3298 346.176 52.7378 345.769C53.7118 344.794 56.3068 346.968 55.5778 348.148C55.2678 348.649 55.6098 348.936 56.3388 348.785C57.0668 348.634 57.5388 349.106 57.3878 349.834C57.2368 350.563 57.5778 350.872 58.1448 350.521C58.7128 350.17 59.4318 350.546 59.7418 351.356C60.0528 352.167 61.2878 353.085 62.4848 353.397C63.6828 353.709 66.2208 355.437 68.1258 357.237C70.0308 359.037 71.8308 360.394 72.1258 360.252C72.4208 360.11 73.4118 360.635 74.3278 361.42C75.2448 362.204 76.2568 362.583 76.5778 362.261C76.8998 361.94 77.1628 362.167 77.1628 362.766C77.1628 363.73 82.3678 366.008 85.9908 366.628C86.7218 366.754 88.0718 367.183 88.9908 367.583C89.9108 367.983 91.5628 368.473 92.6628 368.672C93.7628 368.871 95.3378 369.322 96.1628 369.675C96.9878 370.028 98.4998 370.212 99.5218 370.082C100.545 369.953 101.139 370.24 100.842 370.72C100.546 371.199 101.847 371.412 103.733 371.192C105.62 370.971 107.163 371.226 107.163 371.757C107.163 372.324 111.5 372.68 117.663 372.617C123.437 372.558 128.162 372.173 128.163 371.761C128.163 371.348 129.626 370.999 131.413 370.984C139.379 370.918 141.075 370.677 140.468 369.695C140.089 369.081 140.476 368.916 141.434 369.284C142.314 369.621 143.189 369.431 143.379 368.862C143.569 368.292 144.948 367.755 146.443 367.668C147.938 367.581 149.162 367.173 149.162 366.76C149.163 365.663 147.181 365.861 142.663 367.411C140.463 368.166 136.214 369.072 133.221 369.426C130.228 369.779 126.851 370.301 125.717 370.586C124.582 370.871 118.031 370.645 111.159 370.084C93.6208 368.652 80.8218 364.223 66.6628 354.688C58.4858 349.18 43.0128 333.205 43.2828 330.548C43.5578 327.84 41.0248 322.615 40.1348 324.056C39.6678 324.811 38.9558 324.66 37.8718 323.576C36.8988 322.603 36.0508 322.383 35.6678 323.002ZM183.781 342.141C178.897 347.054 172.948 352.476 170.563 354.189C168.178 355.902 166.444 357.656 166.71 358.086C166.976 358.517 168.637 357.551 170.401 355.94C172.165 354.328 174.183 353.01 174.886 353.01C175.588 353.01 176.164 352.673 176.166 352.26C176.167 351.847 177.516 350.61 179.163 349.51C180.81 348.41 182.159 346.921 182.16 346.201C182.162 345.481 182.613 345.17 183.163 345.51C183.713 345.85 184.163 345.464 184.163 344.652C184.163 343.841 184.501 343.027 184.913 342.843C185.325 342.66 187.083 340.855 188.819 338.832C190.555 336.81 192.167 335.347 192.402 335.582C192.637 335.818 192.83 335.335 192.83 334.51C192.83 333.685 192.792 333.054 192.746 333.108C192.7 333.162 188.666 337.227 183.781 342.141ZM86.7358 346.893C86.1448 347.848 90.9148 350.42 95.3038 351.514C96.7558 351.876 98.2138 351.736 98.5428 351.204C98.8718 350.671 98.5838 350.256 97.9018 350.28C93.9098 350.424 92.1018 349.917 92.7678 348.84C93.2518 348.058 92.9498 347.878 91.8558 348.298C90.9568 348.643 89.5618 348.266 88.7558 347.46C87.9498 346.654 87.0408 346.399 86.7358 346.893ZM100.061 352.073C99.3918 352.487 101.329 353.351 104.527 354.067C107.634 354.762 110.497 355.009 110.89 354.616C111.968 353.539 109.198 352.182 106.522 352.476C105.224 352.618 104.163 352.422 104.163 352.039C104.163 351.125 101.56 351.146 100.061 352.073ZM114.891 354.732C116.666 354.953 119.816 354.956 121.891 354.74C123.965 354.523 122.513 354.343 118.663 354.338C114.813 354.334 113.115 354.511 114.891 354.732ZM157.804 361.527C149.902 365.406 149.143 365.963 152.05 365.744C153.212 365.656 154.163 365.23 154.163 364.797C154.163 364.364 154.818 364.01 155.619 364.01C156.419 364.01 158.723 362.891 160.737 361.524C162.752 360.157 164.866 359.327 165.436 359.679C166.036 360.049 166.171 359.833 165.758 359.165C165.366 358.53 164.959 358.044 164.854 358.085C164.749 358.126 161.577 359.675 157.804 361.527Z" fill="#6D926D"/>
<path fill-rule="evenodd" clip-rule="evenodd" d="M231.321 16.0102C231.321 17.3852 231.548 17.9482 231.825 17.2602C232.103 16.5732 232.103 15.4482 231.825 14.7602C231.548 14.0732 231.321 14.6352 231.321 16.0102ZM142.896 16.1342C143.575 16.8182 144.382 17.1252 144.689 16.8172C144.997 16.5092 144.442 15.9502 143.456 15.5742C142.031 15.0322 141.916 15.1462 142.896 16.1342ZM138.163 16.4032C138.163 16.6192 138.861 17.0642 139.715 17.3922C140.605 17.7332 141.006 17.5652 140.656 16.9992C140.069 16.0482 138.163 15.5932 138.163 16.4032ZM135.896 18.1342C136.575 18.8182 137.382 19.1252 137.689 18.8172C137.997 18.5092 137.442 17.9502 136.456 17.5742C135.031 17.0322 134.916 17.1462 135.896 18.1342ZM132.163 19.1482C132.163 19.7602 131.408 19.9372 130.413 19.5582C129.154 19.0782 128.966 19.1972 129.743 19.9812C130.429 20.6732 131.676 20.7562 133.154 20.2092C135.105 19.4872 135.214 19.2442 133.823 18.7102C132.91 18.3602 132.163 18.5572 132.163 19.1482ZM125.931 21.1782C126.513 21.7602 127.578 22.0382 128.3 21.7982C129.049 21.5482 128.595 21.0952 127.243 20.7412C125.58 20.3062 125.189 20.4362 125.931 21.1782ZM112.896 26.1342C113.575 26.8182 114.382 27.1252 114.689 26.8172C114.997 26.5092 114.442 25.9502 113.456 25.5742C112.031 25.0322 111.916 25.1462 112.896 26.1342ZM106.321 29.0752C105.032 29.5922 103.5 29.7182 102.916 29.3572C102.242 28.9412 102.153 29.1852 102.673 30.0252C103.267 30.9872 103.035 31.1752 101.827 30.7112C100.877 30.3472 100.163 30.5602 100.163 31.2082C100.163 31.8322 99.8838 32.0652 99.5438 31.7242C99.2028 31.3842 98.2448 31.7852 97.4148 32.6152C96.5848 33.4462 95.2648 33.8792 94.4818 33.5792C93.6938 33.2762 93.3318 33.4742 93.6698 34.0212C94.0058 34.5652 93.7288 35.0102 93.0548 35.0102C92.3808 35.0102 92.0448 35.2252 92.3078 35.4882C92.7858 35.9662 107.731 29.7752 108.885 28.6212C109.668 27.8382 109.203 27.9202 106.321 29.0752ZM80.1628 41.2362C80.1628 41.7262 79.7128 41.8502 79.1628 41.5102C78.6128 41.1702 78.1628 41.3952 78.1628 42.0102C78.1628 42.6252 77.7598 42.8792 77.2678 42.5752C76.7748 42.2702 76.1038 42.7222 75.7748 43.5792C75.4458 44.4362 74.7208 44.8552 74.1628 44.5102C73.6048 44.1652 72.8798 44.5842 72.5508 45.4412C72.2218 46.2982 71.4808 46.7072 70.9038 46.3502C70.3258 45.9932 70.1398 46.1642 70.4888 46.7292C71.1498 47.7982 79.5018 44.0912 81.9608 41.6382C83.0238 40.5772 82.9788 40.3432 81.7108 40.3432C80.8588 40.3432 80.1628 40.7452 80.1628 41.2362ZM56.6528 57.0262C56.3068 57.5852 55.5358 57.7412 54.9388 57.3722C54.2758 56.9622 54.1428 57.1692 54.5978 57.9042C55.1668 58.8252 55.6718 58.8332 56.7518 57.9362C58.1668 56.7622 58.5458 56.0102 57.7218 56.0102C57.4788 56.0102 56.9978 56.4672 56.6528 57.0262ZM52.6528 60.0262C52.3068 60.5852 51.6808 60.8302 51.2608 60.5702C50.8398 60.3112 50.4958 60.7552 50.4958 61.5582C50.4958 62.7662 50.8128 62.7322 52.3298 61.3592C54.1508 59.7112 54.5668 59.0102 53.7218 59.0102C53.4788 59.0102 52.9978 59.4672 52.6528 60.0262ZM41.7658 67.8432C41.4828 68.3022 41.8858 68.6772 42.6628 68.6772C43.4398 68.6772 43.8428 68.3022 43.5598 67.8432C43.2768 67.3852 42.8728 67.0102 42.6628 67.0102C42.4528 67.0102 42.0488 67.3852 41.7658 67.8432ZM38.0348 71.7602C36.7918 73.3462 36.8268 73.3812 38.4128 72.1382C40.0788 70.8312 40.6078 70.0102 39.7848 70.0102C39.5778 70.0102 38.7898 70.7972 38.0348 71.7602ZM148.163 75.0992C146.009 76.8612 145.967 76.9962 147.857 76.0722C149.064 75.4822 150.328 74.5522 150.666 74.0052C151.569 72.5442 150.963 72.8092 148.163 75.0992ZM226.242 74.5932C226.29 75.7582 226.527 75.9952 226.846 75.1982C227.135 74.4762 227.099 73.6132 226.767 73.2812C226.435 72.9492 226.199 73.5392 226.242 74.5932ZM151.035 76.7602C149.792 78.3462 149.827 78.3812 151.413 77.1382C152.376 76.3832 153.163 75.5952 153.163 75.3882C153.163 74.5652 152.342 75.0942 151.035 76.7602ZM146.653 80.0262C146.307 80.5852 145.493 80.7382 144.844 80.3662C144.194 79.9942 144.001 80.0622 144.415 80.5192C144.829 80.9752 144.386 82.2842 143.431 83.4292C142.476 84.5732 143.15 84.1882 144.929 82.5732C146.708 80.9582 148.163 79.4952 148.163 79.3232C148.163 78.6402 147.246 79.0672 146.653 80.0262ZM30.1428 82.5342C29.4468 83.3722 29.0718 84.2522 29.3078 84.4892C29.5448 84.7252 30.2878 84.0402 30.9588 82.9652C32.4108 80.6402 31.9268 80.3852 30.1428 82.5342ZM131.301 86.3432C130.474 87.3402 130.528 87.6772 131.512 87.6772C132.237 87.6772 132.83 87.0772 132.83 86.3432C132.83 85.6102 132.735 85.0102 132.619 85.0102C132.503 85.0102 131.91 85.6102 131.301 86.3432ZM125.753 90.3482C123.669 92.0162 123.315 92.6772 124.503 92.6772C125.416 92.6772 125.957 92.4712 125.706 92.2192C125.454 91.9682 126.241 90.9332 127.456 89.9192C130.679 87.2292 129.18 87.6072 125.753 90.3482ZM22.5298 91.7942C22.9008 92.3952 22.4628 93.3022 21.5558 93.8102C20.6478 94.3182 20.3238 94.9912 20.8338 95.3072C21.3448 95.6222 22.2938 95.0312 22.9418 93.9922C23.8168 92.5912 23.8288 91.9222 22.9878 91.4022C22.3148 90.9862 22.1288 91.1462 22.5298 91.7942ZM131.095 94.7732L127.663 98.5062L131.158 95.5082C133.08 93.8592 134.843 92.3982 135.075 92.2602C135.307 92.1222 135.278 91.7922 135.011 91.5252C134.745 91.2582 132.982 92.7202 131.095 94.7732ZM119.766 94.8432C119.483 95.3022 119.886 95.6772 120.663 95.6772C121.44 95.6772 121.843 95.3022 121.56 94.8432C121.277 94.3852 120.873 94.0102 120.663 94.0102C120.453 94.0102 120.049 94.3852 119.766 94.8432ZM116.766 96.8432C116.483 97.3022 116.886 97.6772 117.663 97.6772C118.44 97.6772 118.843 97.3022 118.56 96.8432C118.277 96.3852 117.873 96.0102 117.663 96.0102C117.453 96.0102 117.049 96.3852 116.766 96.8432ZM222.163 97.4512C222.163 98.3082 222.613 99.0102 223.163 99.0102C223.713 99.0102 224.163 98.5872 224.163 98.0692C224.163 97.5512 223.713 96.8502 223.163 96.5102C222.613 96.1702 222.163 96.5942 222.163 97.4512ZM220.781 103.17C220.433 104.908 220.377 106.558 220.656 106.836C220.935 107.115 221.163 106.567 221.163 105.618C221.163 104.669 221.548 104.13 222.019 104.421C222.489 104.712 222.662 103.838 222.402 102.48C221.786 99.2592 221.542 99.3632 220.781 103.17ZM14.6208 106.842C13.5538 109.035 12.4518 110.689 12.1718 110.516C11.8918 110.343 11.5938 111.353 11.5088 112.759C11.4118 114.384 11.6438 114.849 12.1468 114.035C12.5828 113.33 13.4878 113.093 14.1578 113.507C15.0438 114.055 15.1978 113.611 14.7218 111.885C14.1048 109.645 14.1378 109.624 15.3158 111.51C16.4858 113.385 16.6078 113.297 17.2708 110.096C17.6588 108.219 17.6588 105.821 17.2688 104.768C16.6658 103.137 16.2738 103.444 14.6208 106.842ZM105.805 105.42C103.618 107.208 103.266 107.943 104.305 108.544C105.052 108.977 105.354 108.987 104.977 108.567C104.599 108.148 105.499 106.74 106.977 105.439C110.447 102.382 109.536 102.368 105.805 105.42ZM117.706 105.941C117.389 106.453 117.513 107.108 117.98 107.397C118.447 107.686 118.83 107.267 118.83 106.466C118.83 104.78 118.514 104.633 117.706 105.941ZM19.8008 108.51C20.1178 109.335 20.5538 110.01 20.7698 110.01C20.9858 110.01 21.1628 109.335 21.1628 108.51C21.1628 107.685 20.7268 107.01 20.1938 107.01C19.6618 107.01 19.4848 107.685 19.8008 108.51ZM115.514 108.694C115.89 109.071 114.728 110.983 112.931 112.944L109.663 116.51L113.374 113.102C116.593 110.145 117.459 108.01 115.437 108.01C115.103 108.01 115.138 108.318 115.514 108.694ZM19.1628 112.131C19.1628 112.679 19.6888 112.803 20.3328 112.405C21.1198 111.919 21.2938 112.227 20.8638 113.346C20.5128 114.261 20.6138 115.01 21.0868 115.01C21.7638 115.01 23.1628 112.739 23.1628 111.641C23.1628 111.528 22.2628 111.368 21.1628 111.285C20.0628 111.202 19.1628 111.583 19.1628 112.131ZM25.6628 120.01C26.0028 120.56 26.7308 121.01 27.2808 121.01C27.8308 121.01 28.0028 120.56 27.6628 120.01C27.3228 119.46 26.5948 119.01 26.0448 119.01C25.4948 119.01 25.3228 119.46 25.6628 120.01ZM7.72678 121.303C8.10278 122.289 8.66178 122.844 8.96978 122.536C9.27778 122.229 8.97078 121.422 8.28678 120.743C7.29878 119.763 7.18478 119.878 7.72678 121.303ZM85.7028 122.357C84.2638 123.409 84.1458 123.882 85.1658 124.512C86.0288 125.045 86.2298 124.928 85.7578 124.165C85.3358 123.48 85.6798 123.01 86.6038 123.01C87.4608 123.01 88.1628 122.56 88.1628 122.01C88.1628 120.709 87.9068 120.745 85.7028 122.357ZM214.883 126.342C213.769 129.175 213.951 130.622 215.257 129.316C215.858 128.715 216.183 127.387 215.977 126.366C215.617 124.576 215.578 124.575 214.883 126.342ZM82.0348 127.76C80.7918 129.346 80.8268 129.381 82.4128 128.138C83.3758 127.383 84.1628 126.595 84.1628 126.388C84.1628 125.565 83.3418 126.094 82.0348 127.76ZM5.86378 128.674C6.32778 129.883 6.13978 130.114 5.17678 129.519C4.13778 128.876 3.98878 129.392 4.49178 131.904C4.84378 133.667 4.75478 134.876 4.29178 134.59C3.82978 134.304 3.67178 135.223 3.94178 136.632C4.24678 138.227 4.70578 138.75 5.15878 138.017C5.55878 137.369 6.17378 136.878 6.52478 136.925C8.27378 137.159 8.46178 136.909 7.36278 135.81C5.96978 134.417 5.73878 132.63 7.05578 133.444C7.54778 133.748 8.24878 132.804 8.61378 131.348C9.04578 129.629 8.81978 128.409 7.97078 127.87C5.92478 126.573 5.16878 126.861 5.86378 128.674ZM96.1628 130.51C95.6398 131.885 94.7508 133.01 94.1878 133.01C93.6238 133.01 93.1628 133.538 93.1628 134.184C93.1628 134.83 94.2128 134.372 95.4958 133.167C96.7798 131.961 97.8298 130.308 97.8298 129.492C97.8298 127.318 97.2398 127.678 96.1628 130.51ZM212.163 133.951C212.163 134.469 212.608 135.167 213.152 135.503C213.718 135.853 213.886 135.452 213.545 134.562C212.88 132.83 212.163 132.513 212.163 133.951ZM72.6628 135.01C72.3228 135.56 72.5218 136.01 73.1038 136.01C73.6858 136.01 74.1628 135.56 74.1628 135.01C74.1628 134.46 73.9648 134.01 73.7218 134.01C73.4788 134.01 73.0028 134.46 72.6628 135.01ZM69.5918 138.439C68.5328 139.213 67.9228 140.104 68.2378 140.418C68.5518 140.732 69.6748 140.356 70.7338 139.581C71.7928 138.807 72.4028 137.916 72.0878 137.602C71.7738 137.288 70.6508 137.664 69.5918 138.439ZM90.0348 138.76C88.7918 140.346 88.8268 140.381 90.4128 139.138C91.3758 138.383 92.1628 137.595 92.1628 137.388C92.1628 136.565 91.3418 137.094 90.0348 138.76ZM3.32078 143.01C3.32078 144.385 3.54778 144.948 3.82478 144.26C4.10278 143.573 4.10278 142.448 3.82478 141.76C3.54778 141.073 3.32078 141.635 3.32078 143.01ZM86.7278 142.115C86.9898 142.54 86.4078 143.351 85.4338 143.918C84.4598 144.485 84.1558 144.963 84.7578 144.98C85.3598 144.996 86.5998 144.185 87.5118 143.177C88.8848 141.66 88.9188 141.343 87.7108 141.343C86.9078 141.343 86.4658 141.691 86.7278 142.115ZM61.5398 147.26C56.9688 152.475 56.5148 153.621 60.0768 150.948C61.9538 149.539 63.6018 147.627 63.7378 146.698C64.0568 144.524 63.9028 144.564 61.5398 147.26ZM82.3858 147.567C81.1628 148.423 80.1628 149.787 80.1628 150.598C80.1628 151.409 79.4768 152.336 78.6368 152.658C77.4488 153.114 77.3688 153.554 78.2788 154.65C79.2038 155.764 79.1378 155.938 77.9588 155.485C77.0198 155.125 75.4778 156.22 73.7668 158.462C72.2788 160.414 71.4218 162.024 71.8618 162.04C72.3028 162.057 71.8658 162.535 70.8918 163.102C69.9178 163.669 69.3838 164.558 69.7048 165.079C70.0268 165.599 69.5748 166.298 68.7008 166.634C67.4588 167.11 67.3668 167.551 68.2788 168.65C69.2158 169.779 69.1228 169.932 67.8038 169.426C66.7018 169.003 66.1628 169.324 66.1628 170.403C66.1628 172.176 68.6798 172.6 69.6728 170.994C70.0188 170.435 70.7648 170.264 71.3318 170.614C71.9328 170.986 71.8718 170.335 71.1858 169.054C70.1988 167.209 70.3828 166.312 72.3348 163.465C74.1878 160.759 74.7758 160.406 75.2358 161.718C75.7678 163.235 75.8638 163.232 76.4568 161.687C76.8108 160.765 78.1268 160.003 79.3818 159.995C80.6358 159.986 81.2128 159.649 80.6628 159.245C78.9658 157.998 79.5558 153.306 81.7248 150.805C84.0118 148.168 85.4608 146.01 84.9448 146.01C84.7588 146.01 83.6078 146.711 82.3858 147.567ZM2.08878 152.01L1.87878 157.51L1.13578 153.51C0.498779 150.085 0.411781 150.433 0.527781 155.931C0.610781 159.904 1.11678 162.501 1.85378 162.744C3.16278 163.176 6.45478 157.635 5.47278 156.653C5.13678 156.317 4.28478 153.898 3.57978 151.276L2.29778 146.51L2.08878 152.01ZM54.6028 155.108C53.7368 156.508 55.9188 157.009 57.0338 155.666C57.8618 154.667 57.7568 154.343 56.6028 154.343C55.7628 154.343 54.8618 154.687 54.6028 155.108ZM45.1628 156.069C45.1628 156.651 45.6128 156.85 46.1628 156.51C46.7128 156.17 47.1628 155.694 47.1628 155.451C47.1628 155.208 46.7128 155.01 46.1628 155.01C45.6128 155.01 45.1628 155.487 45.1628 156.069ZM52.5338 157.814C51.9448 158.197 50.9108 159.557 50.2368 160.836C49.0858 163.019 49.1398 163.093 51.1148 162.036C52.2718 161.416 52.9788 160.521 52.6848 160.045C52.3908 159.57 52.7158 158.979 53.4068 158.732C54.0978 158.486 54.4248 158.022 54.1338 157.701C53.8428 157.381 53.1228 157.432 52.5338 157.814ZM1.24178 165.593C1.28978 166.758 1.52678 166.995 1.84578 166.198C2.13478 165.476 2.09878 164.613 1.76678 164.281C1.43478 163.949 1.19878 164.539 1.24178 165.593ZM46.6528 168.026C46.3068 168.585 45.5358 168.741 44.9388 168.372C44.2918 167.971 44.1418 168.166 44.5678 168.855C44.9598 169.49 44.8578 170.01 44.3408 170.01C43.8238 170.01 42.1298 171.675 40.5778 173.71L37.7558 177.411L40.3608 175.46C41.7948 174.388 42.8218 173.359 42.6458 173.174C42.4688 172.989 43.7498 171.54 45.4938 169.953C47.2368 168.367 48.3518 167.055 47.9718 167.039C47.5918 167.023 46.9978 167.467 46.6528 168.026ZM64.1628 172.804C64.1628 173.926 63.6418 175.017 63.0048 175.229C61.2328 175.82 61.0218 179.648 62.6848 181.028C63.8798 182.02 64.1628 181.96 64.1628 180.716C64.1628 179.869 63.6798 179.016 63.0888 178.819C62.4988 178.622 63.1328 177.256 64.4978 175.782C66.5878 173.527 66.7578 172.919 65.5718 171.934C64.4378 170.994 64.1628 171.164 64.1628 172.804ZM66.1628 176.903C66.1628 177.394 66.9018 178.079 67.8038 178.426C69.1768 178.953 69.2388 178.806 68.1818 177.533C66.7418 175.798 66.1628 175.617 66.1628 176.903ZM2.39478 180.01C2.39478 181.935 2.60078 182.723 2.85178 181.76C3.10378 180.797 3.10378 179.223 2.85178 178.26C2.60078 177.297 2.39478 178.085 2.39478 180.01ZM59.5158 179.655C59.8658 180.285 59.4868 181.056 58.6738 181.367C57.7598 181.718 57.4458 182.584 57.8498 183.636C58.2678 184.725 58.1128 185.097 57.4198 184.669C56.7318 184.243 56.4378 184.914 56.6138 186.514C56.8508 188.674 56.6708 188.851 55.3348 187.769C54.1048 186.774 53.9368 186.772 54.5298 187.76C54.9678 188.489 54.7698 189.01 54.0548 189.01C53.3808 189.01 53.0918 189.273 53.4128 189.593C53.7338 189.914 53.1338 191.039 52.0798 192.093C51.0248 193.148 50.1628 194.91 50.1628 196.01C50.1628 197.11 49.6858 198.01 49.1038 198.01C48.5218 198.01 48.3068 198.433 48.6258 198.95C48.9458 199.468 48.3578 200.705 47.3208 201.7C44.2478 204.648 43.0778 207.525 44.4098 208.857C46.2118 210.659 47.3618 210.213 46.6548 207.985C46.2368 206.667 46.4308 206.056 47.2128 206.235C47.8728 206.386 48.6398 205.885 48.9178 205.121C49.2268 204.27 48.9848 204.002 48.2928 204.43C46.7778 205.366 46.9148 203.921 48.5438 201.776C49.2678 200.822 50.1778 200.358 50.5648 200.745C50.9518 201.132 51.0198 200.788 50.7168 199.98C50.4128 199.171 51.1118 197.16 52.2688 195.51C53.4268 193.86 54.1528 193.201 53.8818 194.046C53.5648 195.036 54.0228 195.581 55.1698 195.581C56.6258 195.581 56.7878 195.153 56.0568 193.231C54.9228 190.248 54.9348 190.01 56.2218 190.01C56.8038 190.01 57.0028 190.46 56.6628 191.01C56.3228 191.56 56.5698 192.01 57.2108 192.01C57.8518 192.01 58.1228 191.349 57.8138 190.542C57.5038 189.735 57.6608 188.82 58.1628 188.51C58.6648 188.2 58.7938 187.212 58.4488 186.314C57.9938 185.128 58.1888 184.908 59.1628 185.51C60.1498 186.12 60.3298 185.887 59.8438 184.622C59.4798 183.673 59.5968 183.16 60.1048 183.474C61.9118 184.591 62.3658 181.786 60.6398 180.164C59.6728 179.254 59.1668 179.025 59.5158 179.655ZM188.301 180.343C187.474 181.34 187.528 181.677 188.512 181.677C189.237 181.677 189.83 181.077 189.83 180.343C189.83 179.61 189.735 179.01 189.619 179.01C189.503 179.01 188.91 179.61 188.301 180.343ZM35.0348 181.76C33.7658 183.379 33.8128 183.4 35.6628 182.043C36.7628 181.236 37.8508 180.449 38.0798 180.293C38.3088 180.137 38.0258 180.01 37.4518 180.01C36.8778 180.01 35.7898 180.797 35.0348 181.76ZM3.26278 190.178C3.20778 191.096 2.86178 192.632 2.49278 193.592C2.03578 194.783 2.19478 195.108 2.99278 194.615C3.77278 194.133 4.20178 194.829 4.27878 196.701C4.34278 198.246 4.58178 198.822 4.80978 197.982C5.03778 197.142 4.80578 194.667 4.29378 192.482C3.78178 190.297 3.31878 189.261 3.26278 190.178ZM174.138 196.734C170.027 200.982 167.821 203.453 169.237 202.224C170.653 200.996 172.153 200.333 172.571 200.751C172.988 201.168 173.18 200.835 172.996 200.01C172.812 199.18 173.254 198.633 173.987 198.785C174.716 198.936 175.046 198.629 174.721 198.104C174.154 197.186 175.854 195.557 177.413 195.525C177.825 195.517 178.19 195.06 178.224 194.51C178.257 193.96 179.235 192.498 180.398 191.26C181.56 190.022 182.309 189.01 182.062 189.01C181.815 189.01 178.249 192.486 174.138 196.734ZM27.7758 194.193C28.0648 194.66 28.7198 194.784 29.2318 194.467C30.5398 193.659 30.3928 193.343 28.7068 193.343C27.9058 193.343 27.4868 193.726 27.7758 194.193ZM25.6218 196.077C25.2588 196.663 25.2328 197.413 25.5628 197.743C25.8928 198.073 26.1628 197.792 26.1628 197.118C26.1628 196.444 26.6828 196.213 27.3178 196.605C28.0328 197.048 28.2008 196.88 27.7578 196.165C26.8738 194.734 26.4618 194.717 25.6218 196.077ZM120.023 198.097C119.439 198.457 121.144 199.048 123.812 199.408C135.733 201.019 136.465 201.202 135.044 202.214C133.965 202.983 134.039 203.078 135.381 202.648C136.326 202.345 137.387 202.564 137.74 203.135C138.093 203.705 139.495 203.893 140.856 203.551C142.645 203.102 143.124 203.265 142.583 204.14C142.071 204.968 142.351 205.152 143.47 204.722C144.369 204.377 145.79 204.78 146.626 205.616C147.463 206.453 148.601 206.857 149.155 206.515C149.71 206.172 150.163 206.395 150.163 207.01C150.163 207.625 150.566 207.879 151.058 207.575C151.551 207.27 152.19 207.637 152.479 208.39C152.768 209.143 154.383 210.24 156.069 210.827C158.584 211.704 159.438 211.592 160.827 210.203C161.758 209.272 162.749 208.635 163.029 208.787C163.309 208.94 163.639 208.376 163.762 207.534C163.942 206.309 163.489 206.395 161.494 207.964C159.444 209.577 158.66 209.713 157.082 208.727C156.026 208.068 155.163 207.187 155.163 206.769C155.163 206.352 153.925 206.003 152.413 205.995C150.6 205.985 150.102 205.701 150.952 205.161C151.776 204.639 151.094 204.343 149.061 204.343C147.174 204.343 145.354 203.625 144.588 202.577C143.877 201.605 142.816 201.106 142.23 201.469C141.643 201.831 141.163 201.599 141.163 200.952C141.163 200.274 140.328 199.995 139.188 200.293C137.414 200.757 131.115 199.708 127.163 198.291C124.862 197.466 121.205 197.366 120.023 198.097ZM100.156 199.26C100.152 199.948 97.5638 201.342 94.4058 202.359C89.2018 204.035 76.1628 210.56 76.1628 211.489C76.1628 212.016 81.0908 210.513 84.3818 208.982C85.8768 208.287 86.8918 207.38 86.6368 206.969C86.0388 206.001 89.0608 204.829 90.2528 205.566C90.7538 205.875 91.1628 205.603 91.1628 204.962C91.1628 204.321 91.8378 204.055 92.6628 204.372C93.4878 204.688 94.1628 204.492 94.1628 203.935C94.1628 203.378 94.7258 202.995 95.4128 203.085C97.9288 203.411 102.627 202.837 101.421 202.35C100.518 201.986 100.459 201.325 101.206 199.929C101.911 198.611 101.909 198.01 101.198 198.01C100.629 198.01 100.16 198.573 100.156 199.26ZM107.413 199.699C108.376 199.951 109.95 199.951 110.913 199.699C111.876 199.448 111.088 199.242 109.163 199.242C107.238 199.242 106.45 199.448 107.413 199.699ZM102.663 201.01C103.003 201.56 103.479 202.01 103.722 202.01C103.965 202.01 104.163 201.56 104.163 201.01C104.163 200.46 103.686 200.01 103.104 200.01C102.522 200.01 102.323 200.46 102.663 201.01ZM114.432 200.703C115.405 200.957 116.755 200.94 117.432 200.666C118.109 200.392 117.313 200.185 115.663 200.205C114.013 200.225 113.459 200.449 114.432 200.703ZM20.8008 205.51C20.4848 206.335 20.6618 207.01 21.1938 207.01C21.7268 207.01 22.1628 206.335 22.1628 205.51C22.1628 204.685 21.9858 204.01 21.7698 204.01C21.5538 204.01 21.1178 204.685 20.8008 205.51ZM80.8298 205.677C80.4628 206.043 80.1628 206.808 80.1628 207.377C80.1628 208.003 80.6288 207.944 81.3458 207.227C81.9968 206.576 82.2968 205.811 82.0128 205.527C81.7288 205.242 81.1958 205.31 80.8298 205.677ZM48.1628 209.01C48.1628 209.56 48.6398 210.01 49.2218 210.01C49.8038 210.01 50.0028 209.56 49.6628 209.01C49.3228 208.46 48.8468 208.01 48.6038 208.01C48.3608 208.01 48.1628 208.46 48.1628 209.01ZM42.1628 213.069C42.1628 213.651 41.6428 213.807 41.0078 213.415C40.2928 212.972 40.1248 213.14 40.5678 213.855C40.9598 214.49 40.7668 215.01 40.1388 215.01C39.5098 215.01 39.1818 215.568 39.4098 216.251C39.6378 216.934 39.2438 218.072 38.5358 218.78C37.8278 219.488 37.5298 220.804 37.8748 221.703C38.2918 222.789 38.1138 223.098 37.3438 222.622C36.5708 222.144 36.3978 222.459 36.8228 223.568C37.3988 225.069 37.5568 225.049 38.4588 223.369C39.0088 222.347 39.6028 221.337 39.7788 221.125C39.9558 220.913 41.2958 221.523 42.7578 222.48C44.9438 223.913 45.5668 223.981 46.2728 222.865C46.9478 221.801 47.1358 221.873 47.1478 223.203C47.1578 224.35 47.8028 224.772 49.1508 224.512C50.2448 224.302 51.7878 224.778 52.5798 225.57C53.3718 226.362 54.5288 227.01 55.1508 227.01C55.7718 227.01 56.0028 227.46 55.6628 228.01C55.3228 228.56 55.4088 229.044 55.8538 229.087C56.2988 229.129 57.5088 229.322 58.5438 229.517C59.8948 229.772 60.1188 229.566 59.3408 228.788C58.6108 228.058 58.5768 227.105 59.2368 225.871C60.1198 224.222 59.9588 224.137 57.6328 225.021C56.2118 225.562 55.2598 225.663 55.5168 225.246C56.2748 224.019 53.4078 220.762 51.9868 221.235C51.2698 221.474 49.8818 220.652 48.9028 219.407C47.9238 218.162 46.1198 217 44.8928 216.824C43.2518 216.588 42.7258 215.91 42.9008 214.257C43.0318 213.021 42.9198 212.01 42.6508 212.01C42.3828 212.01 42.1628 212.487 42.1628 213.069ZM61.5978 213.115C61.2938 213.607 59.8338 214.062 58.3538 214.126C56.2528 214.217 56.1008 214.352 57.6628 214.742C58.7628 215.017 59.9938 215.752 60.3978 216.376C60.8638 217.096 61.1378 216.871 61.1478 215.76C61.1558 214.797 61.8438 214.01 62.6768 214.01C63.8108 214.01 64.0588 214.765 63.6628 217.01C63.1538 219.896 64.3718 221.098 65.6728 218.994C66.0188 218.435 66.7018 218.225 67.1908 218.528C67.6808 218.83 68.9998 218.504 70.1218 217.803C72.3558 216.409 72.9208 214.782 70.9028 215.556C70.2108 215.822 67.9578 215.18 65.8978 214.13C63.8368 213.079 61.9018 212.623 61.5978 213.115ZM8.44978 215.877C8.56678 217.493 8.99978 218.607 9.41278 218.354C10.4898 217.69 10.3378 214.236 9.19978 213.533C8.65178 213.194 8.32878 214.202 8.44978 215.877ZM73.7758 214.193C74.0648 214.66 74.7198 214.784 75.2318 214.467C76.5398 213.659 76.3928 213.343 74.7068 213.343C73.9058 213.343 73.4868 213.726 73.7758 214.193ZM184.976 216.693C185.697 216.982 186.56 216.946 186.892 216.614C187.224 216.282 186.634 216.046 185.58 216.089C184.415 216.137 184.178 216.374 184.976 216.693ZM64.5678 221.243C63.4008 222.611 63.2798 223.001 64.2548 222.251C65.1308 221.578 66.0678 221.248 66.3378 221.519C66.6088 221.789 66.8298 221.335 66.8298 220.51C66.8298 218.593 66.8278 218.594 64.5678 221.243ZM113.163 219.475C113.163 219.73 113.95 220.358 114.913 220.868C116.122 221.51 117.062 221.366 117.952 220.403C119.034 219.235 118.751 219.01 116.202 219.01C114.531 219.01 113.163 219.219 113.163 219.475ZM190.845 220.903C191.1 221.879 191.951 222.677 192.736 222.677C194.709 222.677 194.52 221.714 192.272 220.31C190.659 219.303 190.449 219.389 190.845 220.903ZM61.1628 226.099C59.0088 227.861 58.9668 227.996 60.8568 227.072C62.0638 226.482 63.3278 225.552 63.6658 225.005C64.5688 223.544 63.9628 223.809 61.1628 226.099ZM36.5788 227.651C37.1088 229.034 36.9648 229.09 35.6628 228.01C34.3468 226.918 34.2198 226.996 34.8098 228.533C35.3138 229.845 35.1538 230.122 34.2258 229.549C33.2688 228.957 33.1278 229.324 33.6628 231.01C34.1498 232.543 34.0238 233.042 33.2698 232.576C32.6608 232.2 32.1058 232.481 32.0348 233.201C31.6908 236.733 31.3878 238.801 30.7438 242.01C30.2878 244.282 30.3688 245.035 30.9748 244.157C31.7428 243.044 32.7738 243.176 36.7858 244.902C39.7138 246.162 40.8868 246.403 39.7218 245.505C37.9438 244.136 37.9298 244.01 39.5548 244.01C40.5418 244.01 41.1348 243.455 40.8908 242.76C40.6458 242.06 39.2488 241.643 37.7168 241.812C35.9968 242.002 35.2218 241.723 35.6308 241.062C35.9878 240.483 35.8348 240.01 35.2888 240.01C34.7428 240.01 34.3348 238.675 34.3808 237.044C34.4268 235.413 34.8958 234.345 35.4208 234.67C35.9958 235.025 36.0978 234.312 35.6778 232.885L34.9778 230.51L36.6218 232.752C39.0998 236.132 41.4348 237.056 44.7608 235.974L47.6628 235.03L44.4368 235.343C41.6648 235.612 41.3838 235.443 42.4368 234.141C43.2218 233.172 43.2538 232.871 42.5258 233.307C41.9008 233.682 40.8248 233.308 40.1348 232.476C39.0738 231.198 39.1728 231.069 40.7718 231.641C42.1768 232.144 41.9078 231.507 39.7258 229.164C36.4268 225.621 35.6578 225.252 36.5788 227.651ZM108.242 230.593C108.29 231.758 108.527 231.995 108.846 231.198C109.135 230.476 109.099 229.613 108.767 229.281C108.435 228.949 108.199 229.539 108.242 230.593ZM110.242 232.593C110.29 233.758 110.527 233.995 110.846 233.198C111.135 232.476 111.099 231.613 110.767 231.281C110.435 230.949 110.199 231.539 110.242 232.593ZM51.0408 237.726C48.4088 239.141 46.4708 240.876 46.5408 241.756C46.6138 242.679 45.7578 243.376 44.4128 243.488C41.3148 243.747 40.8158 244.493 42.1168 246.924C42.9608 248.501 42.9398 249.01 42.0318 249.01C40.7108 249.01 41.7748 250.434 43.2458 250.635C43.7498 250.704 44.2748 250.851 44.4128 250.962C44.5508 251.072 45.4188 251.309 46.3438 251.488C48.2978 251.865 49.3818 249.744 48.4618 247.346C48.0348 246.235 48.2078 245.92 48.9818 246.398C49.7618 246.88 49.9248 246.554 49.4818 245.398C49.0378 244.241 49.2008 243.915 49.9818 244.398C50.7618 244.88 50.9248 244.554 50.4818 243.398C49.9988 242.142 50.1778 241.901 51.1478 242.5C51.9888 243.02 52.2318 242.931 51.8138 242.255C50.9658 240.882 52.1088 237.859 53.2178 238.544C53.6818 238.831 54.5508 238.153 55.1478 237.038C55.7448 235.923 56.1048 235.062 55.9478 235.125C55.7908 235.189 53.5828 236.359 51.0408 237.726ZM47.1828 237.486C46.3938 238.436 46.3178 239.01 46.9818 239.01C48.1898 239.01 49.5988 237.113 48.9058 236.419C48.6538 236.168 47.8788 236.648 47.1828 237.486ZM110.395 242.01C110.395 243.935 110.601 244.723 110.852 243.76C111.104 242.797 111.104 241.223 110.852 240.26C110.601 239.297 110.395 240.085 110.395 242.01ZM124.449 243.51C124.457 246.26 124.651 247.266 124.881 245.746C125.11 244.226 125.104 241.976 124.867 240.746C124.63 239.516 124.442 240.76 124.449 243.51ZM28.2418 245.593C28.2898 246.758 28.5268 246.995 28.8458 246.198C29.1348 245.476 29.0988 244.613 28.7668 244.281C28.4348 243.949 28.1988 244.539 28.2418 245.593ZM47.5448 248.562C47.8858 249.452 47.7178 249.853 47.1518 249.503C46.6078 249.167 46.1628 248.469 46.1628 247.951C46.1628 246.513 46.8798 246.83 47.5448 248.562ZM187.727 248.717C187.185 250.142 187.299 250.257 188.287 249.277C188.971 248.598 189.278 247.791 188.97 247.484C188.662 247.176 188.103 247.731 187.727 248.717ZM27.1478 256.281C27.1348 258.133 26.9518 258.256 26.0628 257.01C25.2538 255.874 25.1358 256.329 25.5788 258.885C25.8998 260.741 26.1628 263.219 26.1628 264.391C26.1628 266.562 28.7958 268.205 34.4728 269.577C36.2968 270.018 37.0968 270.74 36.7538 271.633C36.4628 272.391 36.6308 273.01 37.1268 273.01C37.6228 273.01 38.3158 273.917 38.6678 275.025C39.0188 276.133 39.6908 276.802 40.1588 276.512C40.6278 276.223 41.2178 276.779 41.4708 277.748C41.7238 278.717 41.9898 276.81 42.0618 273.51C42.1558 269.236 42.4718 267.941 43.1628 269.01C43.9298 270.197 44.1318 269.989 44.1318 268.01C44.1318 266.635 43.6958 264.835 43.1628 264.01C42.3918 262.817 42.1898 263.011 42.1778 264.96C42.1668 266.72 41.8578 267.105 41.0788 266.326C39.9288 265.176 36.1628 265.707 36.1628 267.02C36.1628 267.447 36.8378 268.055 37.6628 268.372C38.4878 268.688 39.1268 269.524 39.0838 270.229C39.0218 271.232 38.8958 271.239 38.5008 270.26C38.2228 269.573 37.0588 269.01 35.9128 269.01C34.7668 269.01 34.1258 268.714 34.4878 268.352C34.8498 267.99 34.6438 267.09 34.0318 266.352C33.1978 265.347 33.2418 265.01 34.2068 265.01C35.5898 265.01 34.6068 263.593 33.0798 263.385C32.5758 263.316 31.9218 263.204 31.6278 263.135C31.3328 263.066 31.5598 262.137 32.1308 261.071C32.8328 259.757 32.8398 258.928 32.1488 258.502C31.5888 258.155 31.3488 257.519 31.6148 257.087C31.8818 256.656 30.9888 255.796 29.6318 255.178C27.4098 254.165 27.1608 254.276 27.1478 256.281ZM110.395 260.01C110.395 261.935 110.601 262.722 110.852 261.76C111.104 260.798 111.104 259.222 110.852 258.26C110.601 257.298 110.395 258.085 110.395 260.01ZM24.3578 264.51C24.3778 266.16 24.6018 266.714 24.8558 265.741C25.1098 264.768 25.0928 263.418 24.8188 262.741C24.5448 262.064 24.3378 262.86 24.3578 264.51ZM124.415 265.51C124.426 267.71 124.631 268.492 124.87 267.248C125.109 266.004 125.1 264.204 124.85 263.248C124.6 262.292 124.404 263.31 124.415 265.51ZM210.163 269.51C210.163 272.168 210.346 274.156 210.57 273.927C211.343 273.135 211.601 266.115 210.883 265.397C210.487 265.001 210.163 266.852 210.163 269.51ZM194.395 273.01C194.395 274.935 194.601 275.722 194.852 274.76C195.104 273.798 195.104 272.222 194.852 271.26C194.601 270.298 194.395 271.085 194.395 273.01ZM25.2418 274.593C25.2898 275.758 25.5268 275.995 25.8458 275.198C26.1348 274.476 26.0988 273.613 25.7668 273.281C25.4348 272.949 25.1988 273.539 25.2418 274.593ZM110.321 275.01C110.321 276.385 110.548 276.948 110.825 276.26C111.103 275.573 111.103 274.448 110.825 273.76C110.548 273.073 110.321 273.635 110.321 275.01ZM23.3208 277.01C23.3208 278.385 23.5478 278.948 23.8248 278.26C24.1028 277.573 24.1028 276.448 23.8248 275.76C23.5478 275.073 23.3208 275.635 23.3208 277.01ZM43.3578 278.51C43.3778 280.16 43.6018 280.714 43.8558 279.741C44.1098 278.768 44.0928 277.418 43.8188 276.741C43.5448 276.064 43.3378 276.86 43.3578 278.51ZM24.8218 281.963C24.4328 283.912 24.5738 285.821 25.1498 286.397C25.7068 286.954 26.2088 288.782 26.2648 290.46L26.3678 293.51L27.1328 290.51C27.5548 288.86 28.0708 286.835 28.2808 286.01C28.4908 285.185 29.1128 284.179 29.6628 283.775C30.2818 283.32 30.1868 283.035 29.4128 283.025C28.7258 283.017 28.1628 282.308 28.1628 281.451C28.1628 280.594 27.7508 280.146 27.2478 280.457C26.7448 280.768 26.1478 280.464 25.9198 279.782C25.6928 279.1 25.1988 280.081 24.8218 281.963ZM132.163 279.36C132.163 279.591 133.343 280.553 134.786 281.499C136.229 282.444 137.104 282.723 136.73 282.119C136.017 280.965 132.163 278.636 132.163 279.36ZM138.706 282.941C138.389 283.453 138.513 284.108 138.98 284.397C139.447 284.686 139.83 284.267 139.83 283.466C139.83 281.78 139.514 281.633 138.706 282.941ZM117.562 288.26C117.166 288.948 117.211 289.176 117.661 288.769C118.111 288.361 119.093 288.537 119.844 289.16C120.923 290.055 121.077 289.949 120.579 288.651C119.829 286.697 118.556 286.532 117.562 288.26ZM122.163 290.36C122.163 290.591 123.343 291.553 124.786 292.499C126.229 293.444 127.104 293.723 126.73 293.119C126.017 291.965 122.163 289.636 122.163 290.36ZM42.8938 293.09C43.2478 294.442 43.7008 294.896 43.9508 294.147C44.1908 293.425 43.9128 292.36 43.3308 291.778C42.5888 291.036 42.4588 291.427 42.8938 293.09ZM153.32 294.677C155.891 297.414 157.252 297.87 154.816 295.179C153.904 294.172 153.385 293.122 153.661 292.846C153.937 292.569 153.48 292.343 152.645 292.343C151.481 292.343 151.638 292.887 153.32 294.677ZM192.321 294.01C192.321 295.385 192.548 295.948 192.825 295.26C193.103 294.573 193.103 293.448 192.825 292.76C192.548 292.073 192.321 292.635 192.321 294.01ZM44.2418 297.76C44.2898 298.816 44.5218 299.012 44.8268 298.254C45.1058 297.563 45.8148 297.295 46.4028 297.658C47.0348 298.049 47.1798 297.847 46.7578 297.165C45.6798 295.42 44.1528 295.781 44.2418 297.76ZM156.83 297.677C156.463 298.043 156.177 299.056 156.193 299.927C156.218 301.227 156.414 301.184 157.285 299.685C158.362 297.833 158.05 296.457 156.83 297.677ZM191.163 298.041C191.163 298.574 191.838 299.01 192.663 299.01C193.488 299.01 194.163 298.833 194.163 298.617C194.163 298.401 193.488 297.965 192.663 297.648C191.838 297.332 191.163 297.509 191.163 298.041ZM44.7338 300.581C42.7838 302.531 42.7368 303.111 44.5858 302.401C45.3678 302.101 46.2538 301.215 46.5538 300.433C47.2638 298.584 46.6838 298.631 44.7338 300.581ZM189.727 300.303C190.103 301.289 190.662 301.844 190.97 301.536C191.278 301.229 190.971 300.422 190.287 299.743C189.299 298.763 189.185 298.878 189.727 300.303ZM29.3738 303.755C28.6668 304.72 28.3568 304.948 28.6848 304.26C29.0128 303.573 28.8038 303.01 28.2218 303.01C26.6848 303.01 26.9238 304.628 28.7268 306.431C29.5868 307.291 30.0418 308.397 29.7378 308.889C29.4338 309.38 30.0798 310.017 31.1738 310.303C32.2678 310.589 33.1628 310.452 33.1628 309.998C33.1628 309.545 33.4638 308.388 33.8328 307.428C34.2648 306.301 34.1178 305.92 33.4178 306.352C32.8008 306.734 31.9738 305.942 31.4968 304.511C30.7218 302.188 30.5628 302.131 29.3738 303.755ZM186.163 311.902C186.163 312.576 185.702 312.843 185.138 312.495C184.575 312.146 184.214 312.232 184.336 312.686C184.807 314.426 182.971 318.01 181.936 317.37C181.276 316.962 181.144 317.17 181.598 317.904C182.119 318.749 182.714 318.797 183.594 318.067C184.283 317.495 185.215 317.361 185.665 317.769C186.115 318.176 186.166 317.957 185.777 317.281C185.388 316.605 185.578 315.103 186.198 313.945C186.818 312.787 187.064 311.577 186.744 311.258C186.424 310.938 186.163 311.228 186.163 311.902ZM50.7568 315.859C50.3648 316.492 50.4958 317.01 51.0468 317.01C51.5968 317.01 51.8668 317.95 51.6458 319.099C51.3118 320.833 51.4918 320.982 52.7028 319.977C54.1498 318.776 54.7388 319.725 54.2248 322.429C54.1288 322.935 54.6788 322.826 55.4488 322.188C56.2178 321.55 57.0358 321.136 57.2668 321.269C57.4978 321.401 57.0068 320.916 56.1748 320.189C55.3428 319.463 54.8128 318.338 54.9958 317.689C55.1798 317.041 54.9988 316.841 54.5948 317.244C54.1908 317.648 53.3218 317.243 52.6648 316.343C51.8198 315.188 51.2588 315.046 50.7568 315.859ZM199.535 320.375C197.833 322.321 196.962 325.768 198.009 326.415C198.52 326.73 198.875 326.206 198.8 325.249C198.725 324.293 199.209 323.617 199.877 323.748C200.626 323.895 200.848 323.353 200.457 322.334C200.035 321.233 200.21 320.921 200.982 321.398C201.738 321.866 201.934 321.576 201.545 320.562C200.844 318.735 200.96 318.746 199.535 320.375ZM40.1678 323.729C40.1648 324.399 39.5338 324.706 38.7638 324.41C37.9948 324.115 37.0608 324.365 36.6898 324.967C36.3128 325.577 36.5988 325.938 37.3388 325.785C38.0828 325.63 38.5998 326.292 38.5178 327.295C38.3958 328.798 38.6198 328.877 39.9318 327.795C41.3058 326.662 41.3518 326.769 40.3238 328.699C38.8658 331.437 40.2928 332.507 42.2908 330.174C43.6098 328.633 43.5748 328.111 41.9738 325.475C40.9838 323.844 40.1708 323.058 40.1678 323.729ZM173.653 330.026C173.307 330.585 172.595 330.777 172.069 330.452C171.544 330.127 171.237 330.437 171.388 331.14C171.539 331.844 170.988 332.44 170.163 332.465C169.338 332.49 168.643 333.185 168.618 334.01C168.593 334.835 167.954 335.372 167.198 335.204C166.067 334.951 166.052 335.172 167.116 336.454C167.827 337.31 168.653 338.01 168.952 338.01C169.251 338.01 169.187 337.701 168.809 337.323C168.431 336.945 169.798 334.92 171.846 332.823C173.893 330.726 175.279 329.01 174.925 329.01C174.571 329.01 173.998 329.467 173.653 330.026ZM69.4978 335.782C68.6328 336.332 68.6978 337.021 69.7478 338.457C70.5258 339.522 71.1628 340.065 71.1628 339.666C71.1628 339.266 72.1148 339.449 73.2788 340.072C74.8778 340.928 75.2988 340.918 75.0038 340.032C74.7888 339.387 74.2778 338.903 73.8678 338.956C72.7068 339.106 70.3198 336.597 70.8268 335.76C71.3948 334.822 70.9958 334.829 69.4978 335.782ZM52.4958 344.51C52.4958 345.335 52.7168 345.789 52.9878 345.519C53.7888 344.717 56.1908 347.156 55.5778 348.148C55.2678 348.649 55.6098 348.936 56.3388 348.785C57.0668 348.634 57.5388 349.106 57.3878 349.834C57.2318 350.586 57.5938 350.862 58.2248 350.472C58.9388 350.031 58.1608 348.571 56.0538 346.397C52.2358 342.459 52.4958 342.597 52.4958 344.51ZM180.706 345.941C180.389 346.453 180.513 347.108 180.98 347.397C181.447 347.686 181.83 347.267 181.83 346.466C181.83 344.78 181.514 344.633 180.706 345.941ZM88.6628 349.01C89.0028 349.56 89.7308 350.01 90.2808 350.01C90.8308 350.01 91.0028 349.56 90.6628 349.01C90.3228 348.46 89.5948 348.01 89.0448 348.01C88.4948 348.01 88.3228 348.46 88.6628 349.01ZM145.118 349.364C145.589 349.835 146.779 349.765 147.777 349.206C149.33 348.337 149.211 348.217 146.924 348.353C145.456 348.44 144.647 348.892 145.118 349.364ZM92.9758 350.693C93.6968 350.982 94.5598 350.946 94.8918 350.614C95.2238 350.282 94.6338 350.046 93.5798 350.089C92.4148 350.137 92.1778 350.374 92.9758 350.693ZM97.1628 351.01C96.2618 351.592 96.1378 351.985 96.8538 351.995C97.5088 352.003 98.3228 351.56 98.6628 351.01C99.4298 349.768 99.0838 349.768 97.1628 351.01ZM103.913 353.672C104.601 353.95 105.726 353.95 106.413 353.672C107.101 353.395 106.538 353.168 105.163 353.168C103.788 353.168 103.226 353.395 103.913 353.672ZM130.976 353.693C131.697 353.982 132.56 353.946 132.892 353.614C133.224 353.282 132.634 353.046 131.58 353.089C130.415 353.137 130.178 353.374 130.976 353.693ZM166.706 356.941C166.389 357.453 166.513 358.108 166.98 358.397C167.447 358.686 167.83 358.267 167.83 357.466C167.83 355.78 167.514 355.633 166.706 356.941ZM159.375 360.847C157.567 361.812 156.377 362.891 156.732 363.245C157.086 363.6 157.891 363.451 158.52 362.916C159.148 362.38 160.563 361.296 161.663 360.508C164.367 358.569 163.369 358.717 159.375 360.847ZM74.9188 360.674C75.6098 360.953 75.9238 361.587 75.6168 362.084C75.3098 362.581 75.8308 362.691 76.7748 362.329C77.9318 361.885 78.2578 362.048 77.7748 362.829C77.2928 363.609 77.6188 363.772 78.7748 363.329C79.9318 362.885 80.2578 363.048 79.7748 363.829C79.2948 364.605 79.6138 364.774 80.7408 364.342C82.0918 363.823 81.7578 363.342 79.0428 361.895C77.1838 360.904 75.2128 360.11 74.6628 360.131C74.1128 360.151 74.2278 360.396 74.9188 360.674ZM82.5678 365.165C82.1248 365.88 82.2928 366.048 83.0078 365.605C83.6428 365.213 84.1628 365.395 84.1628 366.01C84.1628 366.625 84.6198 366.845 85.1788 366.5C86.2978 365.809 85.5628 364.01 84.1628 364.01C83.6778 364.01 82.9598 364.53 82.5678 365.165ZM108.163 371.016C112.158 371.55 112.326 371.668 109.663 372.064C108.013 372.309 111.457 372.51 117.316 372.51C123.175 372.51 127.781 372.205 127.551 371.831C127.321 371.458 128.153 371.008 129.398 370.831C130.644 370.655 125.363 370.489 117.663 370.462C109.963 370.436 105.688 370.685 108.163 371.016Z" fill="#558E55"/>
<path fill-rule="evenodd" clip-rule="evenodd" d="M231.321 16.0102C231.321 17.3852 231.548 17.9482 231.825 17.2602C232.103 16.5732 232.103 15.4482 231.825 14.7602C231.548 14.0732 231.321 14.6352 231.321 16.0102ZM38.0349 71.7602C36.7919 73.3462 36.8269 73.3812 38.4129 72.1382C40.0789 70.8312 40.6079 70.0102 39.7849 70.0102C39.5779 70.0102 38.7899 70.7972 38.0349 71.7602ZM0.394897 153.01C0.394897 154.935 0.600898 155.723 0.851898 154.76C1.1039 153.797 1.1039 152.223 0.851898 151.26C0.600898 150.297 0.394897 151.085 0.394897 153.01ZM75.1629 157.01C74.2619 157.592 74.1379 157.985 74.8539 157.995C75.5089 158.003 76.3229 157.56 76.6629 157.01C77.4299 155.768 77.0839 155.768 75.1629 157.01ZM115.976 200.693C116.697 200.982 117.56 200.946 117.892 200.614C118.224 200.282 117.634 200.046 116.58 200.089C115.415 200.137 115.178 200.374 115.976 200.693ZM138.67 202.999C138.32 203.565 138.721 203.733 139.611 203.392C141.343 202.727 141.66 202.01 140.222 202.01C139.704 202.01 139.006 202.455 138.67 202.999ZM162.496 208.466C162.496 209.267 162.879 209.686 163.346 209.397C163.813 209.108 163.937 208.453 163.62 207.941C162.812 206.633 162.496 206.78 162.496 208.466ZM157.374 210.409C158.083 211.179 158.821 211.659 159.013 211.476C159.606 210.912 158.103 209.01 157.065 209.01C156.525 209.01 156.664 209.64 157.374 210.409ZM39.7269 216.303C40.1029 217.289 40.6619 217.844 40.9699 217.536C41.2779 217.229 40.9709 216.422 40.2869 215.743C39.2989 214.763 39.1849 214.878 39.7269 216.303ZM35.1629 228.902C35.1629 229.576 34.7179 229.853 34.1739 229.517C33.5939 229.158 33.4489 229.591 33.8229 230.568C34.4149 232.11 34.5279 232.108 35.4039 230.544C35.9219 229.618 36.0799 228.594 35.7549 228.268C35.4289 227.943 35.1629 228.228 35.1629 228.902ZM108.242 230.593C108.29 231.758 108.527 231.995 108.846 231.198C109.135 230.476 109.099 229.613 108.767 229.281C108.435 228.949 108.199 229.539 108.242 230.593ZM47.1629 247.951C47.1629 248.469 47.6079 249.167 48.1519 249.503C48.7179 249.853 48.8859 249.452 48.5449 248.562C47.8799 246.83 47.1629 246.513 47.1629 247.951ZM23.3209 277.01C23.3209 278.385 23.5479 278.948 23.8249 278.26C24.1029 277.573 24.1029 276.448 23.8249 275.76C23.5479 275.073 23.3209 275.635 23.3209 277.01ZM43.3579 278.51C43.3779 280.16 43.6019 280.714 43.8559 279.741C44.1099 278.768 44.0929 277.418 43.8189 276.741C43.5449 276.064 43.3379 276.86 43.3579 278.51Z" fill="#558055"/>
<path fill-rule="evenodd" clip-rule="evenodd" d="M231.321 16.0102C231.321 17.3852 231.548 17.9482 231.825 17.2602C232.103 16.5732 232.103 15.4482 231.825 14.7602C231.548 14.0732 231.321 14.6352 231.321 16.0102ZM38.0349 71.7602C36.7919 73.3462 36.8269 73.3812 38.4129 72.1382C40.0789 70.8312 40.6079 70.0102 39.7849 70.0102C39.5779 70.0102 38.7899 70.7972 38.0349 71.7602ZM0.241874 153.593C0.289874 154.758 0.526874 154.995 0.845874 154.198C1.13487 153.476 1.09888 152.613 0.766875 152.281C0.434875 151.949 0.198874 152.539 0.241874 153.593ZM115.976 200.693C116.697 200.982 117.56 200.946 117.892 200.614C118.224 200.282 117.634 200.046 116.58 200.089C115.415 200.137 115.178 200.374 115.976 200.693ZM23.3209 277.01C23.3209 278.385 23.5479 278.948 23.8249 278.26C24.1029 277.573 24.1029 276.448 23.8249 275.76C23.5479 275.073 23.3209 275.635 23.3209 277.01ZM43.3579 278.51C43.3779 280.16 43.6019 280.714 43.8559 279.741C44.1099 278.768 44.0929 277.418 43.8189 276.741C43.5449 276.064 43.3379 276.86 43.3579 278.51Z" fill="#408040"/>
<path fill-rule="evenodd" clip-rule="evenodd" d="M231.321 16.0102C231.321 17.3852 231.548 17.9482 231.825 17.2602C232.103 16.5732 232.103 15.4482 231.825 14.7602C231.548 14.0732 231.321 14.6352 231.321 16.0102ZM23.3208 277.01C23.3208 278.385 23.5478 278.948 23.8248 278.26C24.1028 277.573 24.1028 276.448 23.8248 275.76C23.5478 275.073 23.3208 275.635 23.3208 277.01Z" fill="#808080"/>
</svg>
